<?xml version="1.0" encoding="utf-8"?>
<!-- Generator: Adobe Illustrator 25.2.1, SVG Export Plug-In . SVG Version: 6.00 Build 0)  -->
<svg version="1.1" id="Calque_1" xmlns="http://www.w3.org/2000/svg" xmlns:xlink="http://www.w3.org/1999/xlink" x="0px" y="0px"
	 viewBox="0 0 400 400" style="enable-background:new 0 0 400 400;" xml:space="preserve">
<style type="text/css">
	.st0{fill:#858585;}
	.st1{fill:#414141;}
	.st2{fill:#AAAAAA;}
	.st3{fill:#FFFFFF;}
	.st4{font-family:'Montserrat-ExtraBold';}
	.st5{font-size:31.0273px;}
</style>
<g transform="matrix(1, 0, 0, 1, 0, 0)">
	<path id="Subtraction_3-2" class="st0" d="M136.8,385.2L136.8,385.2c-4.9-1.6-9.8-3.5-14.6-5.5C23.7,338.2-22.5,224.8,19,126.3
		C49.3,54.5,119.6,7.8,197.5,7.9v193.5l0.5,0.2l-0.9-0.2L136.8,385.2z"/>
</g>
<g transform="matrix(1, 0, 0, 1, 0, 0)">
	<path id="Intersection_4-2" class="st1" d="M166.6,391.7c-7.1-1.5-14.2-3.3-21.1-5.6L204,207.8l0.9,0.2l169.2,80.7
		c-7.5,15.7-17.2,30.3-28.8,43.3c-11.5,13-24.8,24.4-39.4,33.8c-14.8,9.5-30.9,16.9-47.7,21.9c-17.5,5.2-35.6,7.8-53.8,7.8
		C191.8,395.5,179.1,394.3,166.6,391.7z"/>
</g>
<g transform="matrix(1, 0, 0, 1, 0, 0)">
	<path id="Intersection_3-2" class="st2" d="M207.6,197.1V7.9c104.4,0,188.9,84.7,188.9,189.2c0,28.2-6.2,56.1-18.4,81.5
		L207.6,197.1z"/>
</g>
<text transform="matrix(1 0 0 1 21.7881 202.8479)" class="st3 st4 st5">Designer</text>
<text transform="matrix(1 0 0 1 251.0127 134.8916)" class="st3 st4 st5">Code</text>
<text transform="matrix(1 0 0 1 198 318.3018)" class="st3 st4 st5">Divers</text>
</svg>
