<?xml version="1.0" encoding="utf-8"?>
<!-- Generator: Adobe Illustrator 25.1.0, SVG Export Plug-In . SVG Version: 6.00 Build 0)  -->
<svg version="1.1" id="Calque_1" xmlns="http://www.w3.org/2000/svg" xmlns:xlink="http://www.w3.org/1999/xlink" x="0px" y="0px"
	 viewBox="0 0 1920 1080" style="enable-background:new 0 0 1920 1080;" xml:space="preserve">
<style type="text/css">
	.st0{opacity:0.38;fill:none;stroke:#707070;stroke-dasharray:1;enable-background:new    ;}
	.st1{fill:#0A235B;}
	.st2{fill:#E2D65E;}
	.st3{fill:#F2F0F3;}
	.st4{fill:#DEA89C;}
	.st5{fill:#3D383C;}
	.st6{font-family:'SegoeUI-Semibold';}
	.st7{font-size:20px;}
	.st8{fill:#214EB8;}
	.st9{font-size:48px;}
	.st10{fill:#928B3D;}
	.st11{fill:#8F8F8F;}
	.st12{fill:#82645D;}
	.st13{fill:#100F10;}
	.st14{fill:#FFFFFF;}
	.st15{font-size:26px;}
	.st16{fill:none;stroke:#707070;stroke-linecap:round;}
</style>
<g id="A_propos_-_3" transform="translate(0 -2079.631)">
	<line id="Line_4" class="st0" x1="639.2" y1="2986.4" x2="1506.7" y2="2986.4"/>
	<line id="Line_5" class="st0" x1="639.2" y1="2778.9" x2="1506.7" y2="2778.9"/>
	<line id="Line_6" class="st0" x1="639.2" y1="2581.4" x2="1506.7" y2="2581.4"/>
	<line id="Line_9" class="st0" x1="639.2" y1="2399.5" x2="1506.7" y2="2399.5"/>
	<g transform="matrix(1, 0, 0, 1, 0, 2079.63)">
		<path id="Rectangle_15-2" class="st1" d="M664.7,521.2h134c5.5,0,10,4.5,10,10v549l0,0h-154l0,0v-549
			C654.7,525.7,659.1,521.2,664.7,521.2z"/>
	</g>
	<g transform="matrix(1, 0, 0, 1, 0, 2079.63)">
		<path id="Rectangle_16-2" class="st2" d="M833.7,601.2h134c5.5,0,10,4.5,10,10v469l0,0h-154l0,0v-469
			C823.7,605.7,828.1,601.2,833.7,601.2z"/>
	</g>
	<g transform="matrix(1, 0, 0, 1, 0, 2079.63)">
		<path id="Path_17-2" class="st3" d="M1002,756.2h136c5.5,0,10,4.5,10,10v314H992v-314C992,760.7,996.5,756.2,1002,756.2z"/>
	</g>
	<g transform="matrix(1, 0, 0, 1, 0, 2079.63)">
		<path id="Path_18-2" class="st4" d="M1172,630.2h134c5.5,0,10,4.5,10,10c0,0,0,0,0,0v440h-154v-440
			C1162,634.7,1166.5,630.2,1172,630.2C1172,630.2,1172,630.2,1172,630.2z"/>
	</g>
	<g transform="matrix(1, 0, 0, 1, 0, 2079.63)">
		<path id="Rectangle_19-2" class="st5" d="M1340.7,668.2h135c5.5,0,10,4.5,10,10v402l0,0h-155l0,0v-402
			C1330.7,672.7,1335.1,668.2,1340.7,668.2z"/>
	</g>
	<text transform="matrix(1 0 0 1 425.6582 2986.8779)" class="st6 st7">Piece of Cake</text>
	<text transform="matrix(1 0 0 1 425.6582 2788.8779)" class="st6 st7">Let&apos;s Rock</text>
	<text transform="matrix(1 0 0 1 420.6582 2588.8779)" class="st6 st7"> Come Get Some</text>
	<text transform="matrix(1 0 0 1 425.6582 2406.8779)" class="st6 st7">Damn I&apos;m Good</text>
	<text transform="matrix(1 0 0 1 680.6583 3072.8779)" class="st8 st6 st9">72%</text>
	<text transform="matrix(1 0 0 1 852.6583 3072.8779)" class="st10 st6 st9">65%</text>
	<text transform="matrix(1 0 0 1 1024.6582 3072.8779)" class="st11 st6 st9">48%</text>
	<text transform="matrix(1 0 0 1 1190.6583 3072.8779)" class="st12 st6 st9">62%</text>
	<text transform="matrix(1 0 0 1 1359.6583 3072.8779)" class="st13 st6 st9">60%</text>
	<g transform="matrix(1, 0, 0, 1, 0, 2079.63)">
		<text transform="matrix(1 0 0 1 693.6583 1046.2468)" class="st14 st6 st15">Photo</text>
	</g>
	<g transform="matrix(1, 0, 0, 1, 0, 2079.63)">
		<text transform="matrix(1 0 0 1 872.6583 1046.2468)" class="st14 st6 st15">Logo</text>
	</g>
	<g transform="matrix(1, 0, 0, 1, 0, 2079.63)">
		<text transform="matrix(1 0 0 1 1040.6583 1046.2468)" class="st14 st6 st15">Code</text>
	</g>
	<g transform="matrix(1, 0, 0, 1, 0, 2079.63)">
		<text transform="matrix(1 0 0 1 1201.6583 1046.2468)" class="st14 st6 st15">Sound</text>
	</g>
	<g transform="matrix(1, 0, 0, 1, 0, 2079.63)">
		<text transform="matrix(1 0 0 1 1375.6583 1046.2468)" class="st14 st6 st15">Vidéo</text>
	</g>
	<line id="Line_7" class="st16" x1="639.2" y1="2402.4" x2="639.2" y2="3159.4"/>
	<g transform="matrix(1, 0, 0, 1, 0, 2079.63)">
		<text transform="matrix(1 0 0 1 1345.6583 243.2468)" class="st6 st9">Mes skills</text>
	</g>
</g>
</svg>
