<?xml version="1.0" encoding="utf-8"?>
<!-- Generator: Adobe Illustrator 25.2.0, SVG Export Plug-In . SVG Version: 6.00 Build 0)  -->
<svg version="1.1" id="Calque_1" xmlns="http://www.w3.org/2000/svg" xmlns:xlink="http://www.w3.org/1999/xlink" x="0px" y="0px"
	 viewBox="0 0 20 8" style="enable-background:new 0 0 20 8;" xml:space="preserve">
<style type="text/css">
	.st0{fill:#1A1A1A;}
</style>
<path class="st0" d="M0,0.2c2,0,7.6,1.1,9.7,7.3C7.5,5,7,3.6,4.4,2.8s-2.2-0.4-2.9-1S0.7,0.8,0,0.2z"/>
<path class="st0" d="M9.5,7.8C8.9,6.9,6.6,4.1,5.1,3.6c-1-0.3-1.6-0.1-1.9-0.2C4.5,4.1,5,4.7,5.3,4.7C6.9,4.9,8.9,7.3,9.5,7.8z"/>
<path class="st0" d="M7,1.3C7.7,1.9,9.8,4.1,9.8,7C9.3,5.4,9.3,4.7,8.3,3.6s-0.8-0.8-1-1.3S7.2,1.7,7,1.3z"/>
<path class="st0" d="M20,0.2c-2,0-7.6,1.1-9.7,7.3C12.5,5,13,3.6,15.6,2.8s2.2-0.4,2.9-1C19.1,1.3,19.3,0.8,20,0.2z"/>
<path class="st0" d="M10.5,7.8c0.6-0.8,2.8-3.6,4.4-4.2c1-0.3,1.6-0.1,1.9-0.2c-1.4,0.7-1.8,1.3-2.1,1.4C13.1,4.9,11.1,7.3,10.5,7.8
	z"/>
<path class="st0" d="M13,1.3c-0.8,0.6-2.8,2.8-2.9,5.7c0.5-1.6,0.6-2.3,1.5-3.4s0.8-0.8,1-1.3S12.8,1.7,13,1.3z"/>
</svg>
