<?xml version="1.0" encoding="utf-8"?>
<!-- Generator: Adobe Illustrator 25.1.0, SVG Export Plug-In . SVG Version: 6.00 Build 0)  -->
<svg version="1.1" id="Calque_1" xmlns="http://www.w3.org/2000/svg" xmlns:xlink="http://www.w3.org/1999/xlink" x="0px" y="0px"
	 viewBox="0 0 800 125" style="enable-background:new 0 0 800 125;" xml:space="preserve">
<path d="M126.9,72.4c-19.7,0-37,0-55.8,0c0,15.6,0,30.4,0,46.4c-12.9,0-24.9,0-36.7,0c0-38.8,0-76.9,0-116.3c11.7,0,23,0,35.8,0
	c0,13,0,25.8,0,40.1c19.2,0,37,0,56.3,0c0-13.2,0-26,0-40c12.3,0,23.6,0,36.2,0c0,38.3,0,76.6,0,116.2c-10.8,0-22.8,0-35.7,0
	C126.9,103.9,126.9,89.2,126.9,72.4z"/>
<path d="M640,2.4c11.6,0,22.8,0,34.3,0c0,22.1-0.4,43.1,0.1,64.1c0.4,18.2,9.1,26.1,27.5,26.4c18.3,0.4,28.5-7.7,29.2-24.9
	c0.8-21.1,0.2-42.2,0.2-65.1c10.6,0,22.3,0,34.2,0c0,20.9,0.5,41.2-0.1,61.5c-1.1,37.7-17.9,54.3-55.3,55.8
	c-2.2,0.1-4.4,0.1-6.6,0.2c-47.2,1.1-65.7-21.4-63.6-63C640.7,39.9,640,22.4,640,2.4z"/>
<path d="M545.5,121.7c-9.7-2.2-20-3.1-29.2-6.8c-19.2-7.6-30-21.9-30.4-43.4c-0.4-21.2,9.3-36.3,28.1-45.2
	c20.8-9.9,42.2-9.8,63.2-0.3c19.6,8.9,29.2,25.5,28.3,47.1c-0.8,21.5-12.5,35.2-31.8,42.3C564.9,118.7,555.4,119.6,545.5,121.7z
	 M546.1,43.5C528.8,43.3,515.2,54.9,515,70s13.3,27.3,30.3,27.6c16.8,0.2,31-11.9,31.2-26.8C576.9,55.6,563.5,43.6,546.1,43.5z"/>
<path d="M468.7,21.2c-14.5,13.5-26.5,24.6-40,37.2c12.9,19.4,26,40.6,40,61.8c-16,0-23.9-0.2-36.7-0.2
	c-4.8-16.5-14.7-29.2-25.1-41.9c-17,9.3-25,21.8-17.8,41.4c-11.9,0-21.9,0-32.8,0c0-32.8,0-65.1,0-98.4c10.6,0,20.5,0,30.9,0
	c0,14.2,0,27.8,0,45.7c19.2-14.2,36.4-25.8,47.1-45.6C443.7,21.2,454.3,21.2,468.7,21.2z"/>
<path d="M226.1,119.2c-9.4,0-17.2,0-26.4,0c14.5-33.1,28.4-64.9,43-98c11.5,0,24.3,0,37.1,0c14.9,31.9,30,64,45.7,97.6
	c-10.9,0-20.6,0-30.5,0c-7.6-18.8-7.6-18.8-29.6-18.9c-10.1,0-20.1,0-29.8,0C231.6,107.9,228.5,114.2,226.1,119.2z M242.3,82.9
	c13.4,0,23.1,0,35.9,0C272,70,266.9,59.3,259.9,44.6C253.2,59.2,248.5,69.4,242.3,82.9z"/>
</svg>
