<?xml version="1.0" encoding="utf-8"?>
<!-- Generator: Adobe Illustrator 25.1.0, SVG Export Plug-In . SVG Version: 6.00 Build 0)  -->
<svg version="1.1" id="Calque_1" xmlns="http://www.w3.org/2000/svg" xmlns:xlink="http://www.w3.org/1999/xlink" x="0px" y="0px"
	 viewBox="0 0 800 600" style="enable-background:new 0 0 800 600;" xml:space="preserve">
<style type="text/css">
	.st0{fill:url(#SVGID_1_);stroke:#000000;stroke-miterlimit:10;}
	.st1{stroke:#000000;stroke-width:7;stroke-miterlimit:10;}
</style>
<radialGradient id="SVGID_1_" cx="409" cy="284.7" r="243.0878" gradientTransform="matrix(1 0 0 -1 0 600)" gradientUnits="userSpaceOnUse">
	<stop  offset="0.7825" style="stop-color:#FFFFFF"/>
	<stop  offset="0.8506" style="stop-color:#F3F4F5"/>
	<stop  offset="0.9745" style="stop-color:#D2D7DB"/>
	<stop  offset="0.9842" style="stop-color:#CFD4D9"/>
</radialGradient>
<ellipse class="st0" cx="409" cy="315.3" rx="253.6" ry="232.1"/>
<path d="M720.8,489.8c-5.8,17.8-10.7,33.8-16.3,49.6c-2.9,8.2-6.5,16.3-10.5,24c-4,7.6-8,16-19.2,15c-10.7-1-21.2-8.4-22.7-20.4
	c-1.7-12.8-0.7-26.1,0.5-39c1.9-21,4.9-41.8,3.4-64.4c-2.3,3.5-5,6.8-6.8,10.5c-16.3,35-32.3,70.1-48.9,105
	c-7.4,15.6-12.3,17.9-24.8,14c-12.1-3.8-15.6-10.1-13.9-25.5c1.5-13.6,3.1-27.2,5.1-45.4c-55.7,34.8-112.5,49.9-174,42
	c-59.8-7.7-113.9-29.5-162.6-72.5c0.8,8.7,1,13.2,1.7,17.7c3,20.2,6.7,40.2,9.1,60.5c1.5,13.2-3.6,18.4-16,22
	c-12,3.5-17.4-2.9-21.8-12.5c-15.3-33.1-30.9-66-46.3-99c-3-6.5-5.8-13-11-19.1c-1.4,22.1,0.7,43.7,3.9,65.4
	c1.5,10,2.4,20.2,2.2,30.3c-0.1,5.5-2.3,11.6-5.2,16.4c-9.4,15.8-28,16.4-36.1,0.2c-8.8-17.5-15-36.3-22-54.7
	c-2.6-6.7-4.2-13.8-6.4-21.2c-2.9,0.5-5,0.5-6.8,1.2c-23.3,8.3-28.9,5.8-32.1-18.4c-5.4-41.1-8.8-81.6,1.1-123.6
	c16.7-71.4,12.8-143.2-11.1-213.4c-7.2-21.3-15.1-42.4-13.8-65.9c0.6-12,5.8-18.2,15.2-24.1c38.1-23.8,79.3-32.1,123.6-27
	c32.9,3.8,41.2,12.1,45.1,44.8c0.5,4.3,0.5,8.6,0.6,11.5c18,14.6,34.9,28.2,52.8,42.6c96.3-60.3,193.7-64.6,290.9,0
	c17.1-13.5,33.6-26.6,50.2-39.7c1.3-8,3.2-16.5,4-25.1c1.5-18.4,12.8-26.7,29.4-30c49.6-9.7,95.6-0.8,138.4,26
	c10.1,6.3,12.8,16.1,12.9,26.2c0.2,10.8-1.4,21.8-4,32.3c-5.6,22.6-12,45.1-18.8,67.4c-12,39.1-12.8,79.2-10.3,119.3
	c1.5,23.9,6.2,47.7,11.6,71c4.8,21,6.6,41.6,3.8,62.9c-2.1,15.9-3.1,32-5.4,47.8c-3.3,22.7-9.3,26-30.5,18.3
	C726.7,491.9,724.7,491.2,720.8,489.8z M574.2,253.6c-9.9-5.2-19.4-4.2-28.8,1.6c-30.7,18.9-61.5,37.5-92.6,56.6
	c16.9,15.8,30.4,34.5,53.7,40.8c15.3,4.2,28.5,3.5,39.4-9.8c5-6.1,10.9-11.9,17.2-16.6c8.9-6.7,12.7-14.9,13.2-26
	c0.6-14.5,2.8-28.9,4.3-43.4c8.4,2.7,13.3,7.6,13.3,17.4c-0.1,27.7-1.8,54.4-29.2,70.8c-3,1.8-5.5,4.8-7.8,7.6
	c-9.8,11.9-22.5,12.8-35.8,8.7c-27.2-8.5-54.6-16.8-73-41c-5.3-6.9-11.1-8.8-19.2-1.9c7,21.7,17.6,41.4,36.1,55.4
	c16.8,12.8,35.3,23.3,52,36.2c15.9,12.3,29.6,9.9,46.1,0.5c33.8-19.1,66-40.1,95.4-65.4c4.6-4,9-10.5,17.8-4.3
	c-0.5,11.5-6.8,19.2-16.6,25.3c-11.7,7.3-22.8,15.8-34.6,23c-13.9,8.4-19.8,20.5-20.2,36.3c-1,33.2-9.9,64.7-19.9,96.1
	c-2.9,9-5.9,18.1-7.3,27.4c-1.1,7.1-3.5,15.3,4.5,24.3c5-11.2,9.9-20,13.2-29.4c19.5-56,50.7-106.6,74.8-160.5
	c2.7-5.9,8-10.7,15-19.9c0,10.1,1.6,15.3-0.3,18.5c-11.2,19.6-8.9,40.8-8.7,61.9c0.1,7.3-0.9,14.6-1.8,21.8
	c-3,23.1-6.6,46.2-9.3,69.4c-1.4,12-0.5,24,11.5,34.3c2.6-7.2,5-12.5,6.4-17.9c5.2-19.8,9.2-39.9,15.3-59.3
	c7.5-24,10.6-48.1,10.9-73.2c0.2-17.3,3.7-34.7,6.4-51.9c0.5-3.1,4.5-5.6,9.9-11.9c0.9,25.1,1,45.4,2.7,65.6
	c1.6,19.5-5,40.3,9.5,58.2c5.4-30.8,12.6-61.3,8.8-92.6c-5-40.4-12.1-80.6-16.6-121.1c-2-17.8-2.9-36.7,0.7-54
	c6.7-32.8,16.9-64.9,25.8-97.1c5.2-18.8,11-37.5,9.9-58.5c-40-18.1-80.7-27.2-123.8-19.8c-21,3.6-24.5,10.3-20.4,31.6
	c50.3-10.3,50.3-10.3,62.4-0.4c-12.5,4.6-23.7,9.2-35.3,12.8c-40.7,12.7-76.1,33.6-102.6,67.5c-38.7,49.6-80.8,95.9-129.2,136.2
	c-7.2,6-9.1,12.4-4.5,22.5c5.9-1.1,12-0.9,16.7-3.4c20.7-10.6,42.1-20.3,61.2-33.3c30.6-20.6,63.4-35.9,98.4-46.7
	c12.1-3.7,24.5-6.6,37.8,1.2c-18.7,6.9-37.3,13.7-56.8,20.9C571.9,248.5,573,251,574.2,253.6z M226.2,253c1.6-3,3.2-6,5.7-10.8
	c-10.7-4-20.2-7.3-29.4-11.2c-8.6-3.7-19.8-2.4-29.1-16.4c17.2,2.6,30.3,3,42.5,6.6c34.4,10.2,66.6,25.4,96.2,46.2
	c15.5,10.8,32.3,19.7,49,28.6c6.3,3.4,13.7,5.4,20.8,6.3c3.4,0.5,9.2-2,10.5-4.7c1.5-3-0.2-8.2-1.9-11.9c-1-2.3-4.5-3.5-6.6-5.5
	c-40.9-36.4-80.6-73.8-113.4-118.1c-9.9-13.4-21.2-25.9-33.2-37.6c-26.2-25.6-58.9-39.7-93.4-50.4c-8.6-2.7-16.7-6.8-26.6-10.8
	c11.8-12.2,22.8-6.8,33-5.2c10.4,1.7,20.6,4.9,31.1,7.6c1.6-22.1-0.3-27.1-14.8-30.6c-46.1-11.1-88.9-0.2-133,19.3
	c4.1,19.1,7.1,36.3,11.5,53c8,30.3,17.4,60.2,25,90.7c3.5,14,6.5,29,5.3,43.2c-3,35.5-6.6,71.2-13.5,106.1
	c-5.9,29.8-8.1,59.1-4.3,89c1.7,13.4,4,26.7,6.6,43.2c9.9-16.5,10.2-17.6,10.3-33.9c0.2-22.6,0.3-45.2,0.9-67.8
	c0.2-7.4,1.6-14.7,3-26.5c12.7,15.8,14,30,13.6,43.2c-1.4,43.7,8.4,85.3,20.2,126.8c3.2,11.2,5.6,22.7,8.7,33.9
	c1.1,3.9,3.5,7.5,7.2,15.2c4.1-11.7,9.1-19.6,9.3-27.5c0.2-13.7-2.7-27.5-4-41.2c-2.4-25.4-5.7-50.7-6.5-76.1
	c-0.4-12.5-0.7-24.5-5.8-36.1c-3-6.7-7.1-14-0.9-25.2c17.8,21.8,26.2,45.7,37,68.3c11,23,23,45.6,34.4,68.4
	c11.1,22,14.1,47.8,31.3,71c5.2-17.2,1.8-30-2.2-42.1c-12.6-37.5-21.5-75.7-24.6-115.2c-0.8-10.3-5.2-18-13.6-23.7
	c-13.3-9-26.3-18.4-39.8-27c-9.8-6.2-15.8-14-16.5-25.6c10-5.5,14.5,2,19.6,6.3c30.6,26.2,64.2,47.9,99.7,66.9
	c9.2,4.9,18.5,10,28.7,3.1c22.9-15.5,46.3-30.4,68.1-47.4c16.2-12.7,25.3-31.3,31.6-50.8c-7.9-6.9-13.8-5.2-19.2,1.6
	c-13.6,17.2-31.9,27.4-52.2,34.4c15.9-14.1,31.8-28.3,48.4-43c-16-9.2-29.3-16.5-42.3-24.4c-16.1-9.8-32.1-19.9-47.9-30.2
	C249.4,247.7,238.1,245.7,226.2,253z M217.8,419.4c0,4.2-0.7,6.6,0.1,8.2C248.6,485,293,528.1,358,539.8
	c89.7,16,162.9-17.5,220-87.5c7.1-8.7,10.8-18.4,10-31.6c-5,1.7-8.5,2.2-11.4,3.9c-13.8,8-28.3,7.7-42,1.2
	c-19-9-37.9-18.6-55.6-29.8c-28.9-18.2-53.8-40.5-62.4-75.6c-2.3-9.6-9-13.4-17.2-14.1c-8.5-0.7-12.5,5.6-14.5,13.5
	c-6.8,26.8-23.3,46.6-45.3,62.3c-11.2,8.1-22.6,16-34.4,23.3C278.5,422,251.3,437.9,217.8,419.4z M541.3,124.9
	C469.4,70.8,338,71.1,273.8,141.3c38.7,49.6,81.6,95.3,129.5,139.8C452.4,229.9,501.9,182.9,541.3,124.9z"/>
<path class="st1" d="M302.5,352.5c20.3-7,38.6-17.2,52.2-34.5c5.4-6.8,11.3-8.5,19.2-1.6c-6.3,19.5-15.4,38-31.6,50.8
	c-21.7,17-45.2,31.9-68,47.4c-10.1,6.9-19.5,1.8-28.7-3.1c-35.5-19-69.1-40.7-99.7-66.9c-5.1-4.4-9.6-11.8-19.6-6.3
	c0.6,11.6,6.7,19.4,16.5,25.6c13.5,8.6,26.5,18,39.8,27c8.4,5.7,12.8,13.4,13.6,23.7c3.1,39.5,12,77.7,24.6,115.2
	c4.1,12,7.4,24.9,2.2,42.1c-17.2-23.2-20.2-49-31.3-71c-11.5-22.8-23.4-45.3-34.4-68.4c-10.8-22.6-19.3-46.5-37-68.3
	c-6.1,11.2-2,18.5,0.9,25.2c5.2,11.7,5.4,23.6,5.8,36.1c0.9,25.4,4.1,50.8,6.5,76.1c1.3,13.8,4.2,27.5,4,41.2
	c-0.1,7-4,13.9-7.7,23.4c-0.6,1.5-2.8,1.6-3.5,0.2c-2.6-5.1-4.3-8.1-5.2-11.2c-3.2-11.2-5.5-22.7-8.7-33.9
	c-11.7-41.5-21.5-83.1-20.2-126.8c0.4-13.2-0.9-27.4-13.6-43.2c-1.4,11.8-2.8,19.1-3,26.5c-0.6,22.6-0.6,45.2-0.9,67.8
	c-0.2,16.3-0.4,17.4-10.3,33.9c-2.5-16.5-4.9-29.8-6.6-43.2c-3.8-29.9-1.6-59.2,4.3-89c6.9-34.7,10.5-70.3,13.4-105.8
	c1.2-14.2-1.9-29.2-5.3-43.2c-7.6-30.4-17-60.3-25-90.7c-4.4-16.8-7.4-33.9-11.5-53c44.1-19.4,86.9-30.3,133-19.2
	c14.5,3.5,16.4,8.6,14.8,30.6c-10.6-2.7-20.7-5.9-31.1-7.6c-10.2-1.7-21.2-7-33,5.2c9.8,4.1,18,8.2,26.6,10.8
	c34.5,10.7,67.2,24.8,93.4,50.4c11.9,11.6,23.3,24.2,33.2,37.6c32.8,44.3,72.5,81.7,113.4,118.1c2.2,1.9,5.6,3.1,6.6,5.5
	c1.6,3.7,3.3,8.9,1.9,11.9c-1.4,2.8-7.1,5.2-10.5,4.7c-7.1-1-14.5-3-20.8-6.3c-16.7-9-33.5-17.8-49-28.6
	c-29.6-20.7-61.8-36-96.2-46.2c-12.2-3.6-25.3-4.1-42.5-6.6c9.4,14,20.6,12.7,29.1,16.4c9.2,4,18.7,7.2,29.4,11.2
	c-2.5,4.8-4.1,7.8-5.7,10.8l0.5-0.6c-7.7,3.5-17.8,5.3-17.5,16.5c0.8,26.5-2.4,54.6,25.7,71.4c2.4,1.5,4.3,3.9,6.4,5.8
	c20.9,19.8,24.6,20.3,51.1,7.2C295.7,353,299.1,352.8,302.5,352.5z"/>
<path class="st1" d="M574.2,253.6c-1.1-2.5-2.2-5.1-4-9c19.5-7.2,38.1-14,56.8-20.9c-13.3-7.8-25.7-4.9-37.8-1.2
	c-35,10.8-67.8,26-98.4,46.7c-19.2,12.9-40.5,22.7-61.2,33.3c-4.8,2.4-10.8,2.2-16.7,3.4c-4.6-10.1-2.7-16.5,4.5-22.5
	c48.4-40.3,90.5-86.6,129.2-136.2c26.5-33.9,61.9-54.8,102.6-67.5c11.5-3.6,22.8-8.2,35.3-12.8c-12.1-9.9-12.1-9.9-62.4,0.4
	c-4.1-21.3-0.6-28,20.4-31.6c43.1-7.4,83.8,1.7,123.8,19.8c1.1,21-4.7,39.7-9.9,58.5c-8.9,32.3-19.1,64.4-25.8,97.1
	c-3.5,17.4-2.7,36.2-0.7,54c4.6,40.5,11.7,80.6,16.6,121.1c3.8,31.3-3.4,61.9-8.8,92.6c-14.5-18-7.9-38.8-9.5-58.2
	c-1.6-20.2-1.7-40.5-2.7-65.6c-5.4,6.4-9.4,8.9-9.9,11.9c-2.7,17.2-6.2,34.6-6.4,51.9c-0.3,25-3.4,49.2-10.9,73.2
	c-6.1,19.5-10.1,39.6-15.3,59.3c-1.4,5.5-3.8,10.7-6.4,17.9c-11.9-10.3-12.8-22.2-11.5-34.3c2.7-23.2,6.2-46.2,9.3-69.4
	c0.9-7.2,1.9-14.5,1.8-21.8c-0.2-21.1-2.5-42.2,8.7-61.9c1.8-3.2,0.3-8.4,0.3-18.5c-7.1,9.2-12.4,14-15,19.9
	c-24.2,53.9-55.3,104.4-74.8,160.5c-3.3,9.4-8.1,18.3-13.2,29.4c-8-9-5.7-17.1-4.5-24.3c1.5-9.3,4.5-18.4,7.3-27.4
	c10-31.3,18.9-62.9,19.9-96.1c0.5-15.8,6.3-27.9,20.2-36.3c11.8-7.2,22.9-15.6,34.6-23c9.8-6.1,16.1-13.8,16.6-25.3
	c-8.8-6.1-13.2,0.3-17.8,4.3c-29.4,25.3-61.7,46.3-95.4,65.4c-16.4,9.3-30.2,11.8-46.1-0.5c-16.7-12.9-35.2-23.5-52-36.2
	c-18.5-14.1-29.1-33.7-36.1-55.4c8-6.8,13.9-5,19.2,1.9c18.4,24.2,45.9,32.5,73,41c13.3,4.2,26,3.2,35.8-8.7
	c2.3-2.8,4.8-5.8,7.8-7.6c27.3-16.4,29-43.1,29.2-70.8c0-9.8-4.8-14.7-13.3-17.4C578.4,255.8,576.3,254.7,574.2,253.6z"/>
<path d="M226.7,252.4c-1.7,27.4-9.1,56,18.4,76.4c3.5,2.6,6.6,5.7,9.2,9.2c9.7,12.7,22.2,18,38,15.4c-26.5,13.2-30.2,12.6-51.1-7.2
	c-2.1-2-4-4.4-6.4-5.8c-28-16.8-24.9-45-25.7-71.4C208.9,257.7,218.9,255.9,226.7,252.4z"/>
</svg>
