<?xml version="1.0" encoding="utf-8"?>
<!-- Generator: Adobe Illustrator 25.1.0, SVG Export Plug-In . SVG Version: 6.00 Build 0)  -->
<svg version="1.1" id="Calque_1" xmlns="http://www.w3.org/2000/svg" xmlns:xlink="http://www.w3.org/1999/xlink" x="0px" y="0px"
	 viewBox="0 0 800 600" style="enable-background:new 0 0 800 600;" xml:space="preserve">
<style type="text/css">
	.st0{fill:#FFFFFF;}
	.st1{fill:#FFFFFF;stroke:#FFFFFF;stroke-miterlimit:10;}
</style>
<g>
	<g>
		<path class="st0" d="M584.4,583.9c-2.2,0-4.9-0.5-8.5-1.6c-11.6-3.6-14.8-9.6-13.2-24.5c0.9-8.2,1.8-16.5,2.9-25.7l2.5-21.8
			l-1.8,1.1c-47.2,29.5-93.5,43.9-141.6,43.9c-10.4,0-21.1-0.7-31.8-2.1c-63.3-8.2-116.3-31.8-162.1-72.3l-1.9-1.7l0.2,2.5
			c0.3,3.1,0.5,5.7,0.7,7.9l0,0.5c0.3,3.8,0.5,6.6,1,9.4c1,6.7,2.1,13.4,3.2,20.3c2.1,13.1,4.3,26.7,5.9,40.1
			c1.4,11.9-2.5,17.2-15.2,20.9c-2.1,0.6-4.1,0.9-5.9,0.9c-7.8,0-11.7-6.2-14.7-12.8c-10.1-22-20.8-44.6-30.1-64.6l-2.5-5.3
			c-4.6-9.7-9.1-19.4-13.6-29.1l-0.8-1.8c-2.7-5.9-5.5-12-10.3-17.6l-1.6-1.9l-0.2,2.5c-1.6,23.9,1.1,46.6,3.9,65.6
			c1.7,11.4,2.4,21.2,2.2,30.2c-0.1,4.9-2,10.7-5.1,15.9c-4.3,7.3-11.1,11.6-18,11.6c-6.8,0-12.8-4.1-16.4-11.4
			c-6.6-13.2-11.8-27.3-16.9-41l-0.1-0.2c-1.6-4.2-3.2-8.8-5-13.3c-1.7-4.5-3-9.1-4.4-14l-0.3-1.2c-0.6-2-1.1-4-1.7-6l-0.3-0.8
			l-0.9,0.1c-1,0.2-1.9,0.3-2.7,0.4c-1.5,0.2-3,0.4-4.3,0.8c-8.3,3-13.5,4.3-17.5,4.3c-7.9,0-11.1-5.3-13.3-21.9
			c-4.8-36.8-9.1-79.6,1.1-123.2c16.7-71.3,12.9-143.2-11.2-213.9l-1.3-3.8c-6.7-19.6-13.6-39.9-12.4-61.8
			c0.7-12.2,6.1-17.9,14.7-23.3C65.2,25.5,98.3,16,133.5,16c8.1,0,16.4,0.5,24.7,1.5c32.2,3.8,40.4,12,44.2,44
			c0.3,2.9,0.4,5.9,0.5,8.3l0,0.3c0,1,0.1,2,0.1,2.8l0,0.4l53.7,43.4l0.6-0.4c49.5-31,98.9-46.7,147-46.7
			c48.1,0,96.1,15.7,142.7,46.7l0.6,0.4l51.1-40.4l0.1-0.4c0.4-2.2,0.8-4.4,1.3-7.4c1-5.4,2.1-11.6,2.6-17.7
			c1.4-16.3,10.5-25.5,28.6-29.1c12.8-2.5,25.6-3.8,38-3.8c34.7,0,68.2,10,99.7,29.6c8.3,5.2,12.3,13.3,12.4,25.4
			c0.1,10-1.2,20.8-4,32c-5.4,21.6-11.7,44.3-18.8,67.4c-13.1,42.7-12.5,86.4-10.4,119.6c1.6,24.9,6.7,49.9,11.6,71.2
			c5.1,22.4,6.4,42.9,3.7,62.5c-1,7.2-1.7,14.6-2.4,21.7l-0.1,0.8c-0.8,8.3-1.7,16.9-2.9,25.4c-2.3,15.9-5.8,21.2-13.7,21.2
			c-3.7,0-8.5-1.1-15.5-3.7c-0.8-0.3-1.6-0.6-2.5-0.9l-6.3-2.2l-0.3,1c-1.8,5.4-3.4,10.6-5.1,15.6l-0.3,1
			c-3.7,11.4-7.2,22.2-10.9,32.9c-2.9,8.1-6.4,16.1-10.5,23.9l-0.4,0.8c-3.6,6.8-7.2,13.8-16.1,13.8c-0.5,0-1.1,0-1.7-0.1
			c-9.4-0.9-20.2-7.3-21.8-19.6c-1.6-12.5-0.7-25.5,0.5-38.8c0.3-3.4,0.6-6.7,1-10.1l0.2-2c1.7-16.8,3.4-34.2,2.2-52.4l-0.2-3
			l-1.6,2.5c-0.6,0.9-1.3,1.9-2.2,3.3l-0.1,0.1c-1.6,2.3-3.3,4.7-4.5,7.3c-6.5,13.8-12.8,27.5-19.8,42.7
			c-10.3,22.2-19.6,42.3-29,62.3C594.2,580.2,590.4,583.9,584.4,583.9z M675.3,340.5c-0.6,9.8-5.7,17.5-16.1,23.9
			c-5.4,3.4-10.7,7-15.8,10.5l-0.3,0.2c-5.7,3.9-12.1,8.3-18.5,12.2c-13.4,8.1-20.2,20.3-20.7,37.1c-1,34.1-10.8,67.3-19.8,95.8
			l-0.5,1.7c-2.7,8.4-5.5,17.1-6.8,25.9c-0.1,0.6-0.2,1.1-0.3,1.7l0,0.3c-1.2,6.8-2.5,14.6,5.1,23.2l1,1.2l0.6-1.4
			c1.7-3.8,3.4-7.3,4.9-10.4c3.1-6.6,6.1-12.8,8.3-19.1c12.2-35,29.2-68.4,45.6-100.6c9.9-19.4,20.1-39.5,29.2-59.7
			c1.7-3.7,4.5-7.1,8.1-11.3c1.6-1.9,3.2-3.8,5.1-6.1c0.1,2.5,0.2,4.7,0.4,6.6c0.3,4.1,0.5,6.8-0.5,8.6c-9.8,17.2-9.4,35.9-9,54
			c0.1,2.8,0.1,5.6,0.2,8.4c0.1,7-0.9,14.1-1.8,21.1l-0.1,0.6c-1.1,8.7-2.4,17.5-3.6,26l-0.2,1.4c-1.9,13.8-3.9,28-5.5,42
			c-1.3,11.2-0.9,24.2,11.8,35.2l1.1,0.9l0.5-1.4c0.8-2.3,1.6-4.3,2.4-6.3l0.1-0.4c1.6-4.1,2.9-7.7,3.9-11.4
			c1.9-7.1,3.6-14.4,5.3-21.4l0.1-0.6c2.9-12.3,6-25,9.8-37.2c7-22.4,10.6-46.4,11-73.5c0.2-14.2,2.6-28.6,4.9-42.5
			c0.5-3.1,1-6.2,1.5-9.3c0.3-1.6,1.9-3.2,4.3-5.7c1.1-1.1,2.3-2.4,3.7-3.8c0.3,6.9,0.4,13.5,0.6,20.1l0,0.6
			c0.4,15.5,0.8,28.8,1.9,42.5c0.4,5.3,0.2,10.9,0.1,16.3c-0.5,14.4-1,29.2,9.7,42.5l1.4,1.7l0.4-2.2c0.6-3.5,1.3-7,1.9-10.5
			l0.5-2.6c4.8-25.9,9.7-52.7,6.4-79.8c-2.3-19.1-5.2-38.6-7.8-55.7c-3.1-21.3-6.4-43.3-8.9-65.3c-1.6-13.9-3.2-34.7,0.7-53.7
			c4.9-24.1,11.8-48.2,18.5-71.5l0.7-2.5c2.2-7.6,4.4-15.4,6.5-23.1l1.2-4.5c4.8-17.2,9.7-34.9,8.7-54.3l0-0.6l-0.6-0.2
			c-33.3-15.1-64.1-22.5-93.9-22.5c-10.1,0-20.4,0.9-30.4,2.6c-10.8,1.9-16.8,4.6-19.9,9.1c-3.3,4.8-3.6,11.4-1.3,23.7l0.2,1l1-0.2
			c25.2-5.2,37.9-7.8,45.6-7.8c6.6,0,9.6,2,14.6,6c-3,1.1-5.9,2.2-8.8,3.3l-1.8,0.7c-7.9,3-15.4,5.8-23.1,8.2
			c-44.5,13.8-78.2,36-103.1,67.8c-43,55-85.2,99.5-129.1,136.1c-7.9,6.6-9.3,13.7-4.8,23.7l0.3,0.7l0.8-0.1
			c1.8-0.3,3.6-0.5,5.4-0.8l0.2,0c4.1-0.5,8-0.9,11.4-2.7c3.9-2,7.9-4,11.9-6l1.1-0.6c16.3-8.1,33.1-16.5,48.3-26.8
			c29.9-20.2,62-35.4,98.1-46.6c5.8-1.8,12.6-3.7,19.5-3.7c5.5,0,10.6,1.2,15.6,3.8L569,243.1l3.3,7.6c-3.6-1.5-7.3-2.3-10.9-2.3
			c-5.5,0-10.9,1.7-16.5,5.2c-21.9,13.5-44,27-66.7,40.8c-8.6,5.2-17.3,10.5-26,15.8l-1.1,0.7l1,0.9c3.6,3.3,7,6.8,10.4,10.2
			l0.6,0.6c12.8,13,24.8,25.2,43.1,30.2c5.7,1.5,10.6,2.3,15,2.3c10.2,0,18.5-4.1,25.4-12.4c5.2-6.3,10.9-11.8,17.1-16.5
			c8.9-6.7,13.1-14.9,13.6-26.7c0.4-10.1,1.6-20.3,2.8-30.2l0.1-0.9c0.4-3.6,0.9-7.3,1.3-10.9c8,2.9,11.4,7.8,11.4,16
			c-0.1,28.9-2.4,54.2-28.7,69.9c-3.2,1.9-5.7,5-8,7.8l-0.1,0.1c-5.8,7.1-12.9,10.6-21.7,10.6c-4,0-8.4-0.7-13.1-2.2l-1.2-0.4
			c-26.3-8.2-53.4-16.7-71.3-40.3c-3.4-4.5-6.9-6.6-10.6-6.6c-3.1,0-6.4,1.5-10,4.5l-0.5,0.4l0.2,0.6c8.2,25.5,19.8,43.2,36.5,55.9
			c8.2,6.3,16.9,12,25.3,17.6l0.1,0.1c8.9,5.9,18,12,26.6,18.6c7.5,5.8,14.8,8.6,22.5,8.6c7.4,0,15-2.5,24.7-8
			c38.9-22.1,69.3-42.9,95.6-65.6c0.5-0.4,1-0.9,1.5-1.3l0.5-0.4c2.5-2.4,5.1-4.8,8.4-4.8C671.4,338.5,673.2,339.1,675.3,340.5z
			 M120.4,365.3c13.2,16.6,21.3,34.5,29,51.8l0.1,0.3c2.2,4.9,4.4,9.9,6.8,14.8c7.3,15.4,15.5,31.2,22.6,45.2
			c4.2,8.3,8,15.7,11.8,23.2c4.2,8.3,7.2,17.1,10.4,26.4c5.1,15,10.3,30.3,21.1,44.8l1.2,1.6l0.6-1.9c5.3-17.5,1.8-30.7-2.2-42.7
			c-13.6-40.5-21.7-78.1-24.6-115c-0.8-10.6-5.4-18.6-14-24.4c-4.3-2.9-8.6-5.9-12.8-8.8l-0.4-0.3c-8.2-5.7-17.4-12.1-26.6-18
			c-10.2-6.5-15.3-14.2-16-24.2c2-1,3.8-1.5,5.6-1.5c4,0,6.9,2.8,9.7,5.6l0.2,0.2c0.8,0.8,1.6,1.6,2.4,2.2
			c28.6,24.5,61.3,46.4,99.9,67l0.1,0.1c6,3.2,12.1,6.5,18.6,6.5c3.9,0,7.5-1.2,11-3.5c4.8-3.3,9.8-6.6,14.6-9.8l1.6-1.1
			c17.3-11.6,35.2-23.5,51.9-36.6c14-11,24.2-27.3,32-51.2l0.2-0.6l-0.5-0.4c-3.6-3.1-6.9-4.7-10.1-4.7c-3.7,0-7.1,2.1-10.6,6.4
			c-11.2,14.1-26.1,24.5-46.8,32.3l45.5-40.4l-1.2-0.7c-4.2-2.4-8.1-4.6-12-6.8l-2.7-1.5c-9.1-5.2-18.6-10.5-27.6-16
			c-14.9-9.1-30.6-18.9-47.9-30.2c-7-4.5-13.5-6.7-19.8-6.7c-4.3,0-8.6,1-12.8,3.1l4.7-8.8l-1.1-0.4c-3.4-1.3-6.6-2.5-9.7-3.6
			c-6.9-2.5-13.4-4.9-19.7-7.6c-2.4-1-4.9-1.7-7.4-2.3c-6.4-1.6-13.6-3.5-19.9-11.8c4.9,0.7,9.3,1.2,13.6,1.7
			c9.8,1.2,18.3,2.2,26.4,4.5c34.7,10.3,67,25.8,95.9,46c14.4,10.1,30.1,18.5,45.4,26.7l3.7,2c5.8,3.1,13.1,5.3,21.1,6.4
			c0.3,0,0.7,0.1,1,0.1c3.7,0,9.1-2.3,10.5-5.4c1.3-2.7,0.7-7-1.8-12.8c-0.8-1.8-2.6-2.9-4.3-4c-0.9-0.6-1.8-1.2-2.6-1.8
			c-36.9-32.9-79.1-71.8-113.3-117.9c-9.3-12.5-20.5-25.2-33.3-37.7c-28.8-28.1-65.3-41.8-93.8-50.6c-5.8-1.8-11.4-4.2-17.3-6.9
			l-0.6-0.3c-2.3-1-4.7-2.1-7.2-3.1c4.6-4.4,9.5-6.4,15.2-6.4c3.6,0,7.2,0.8,10.7,1.5l0.4,0.1c1.6,0.3,3.2,0.7,4.8,1
			c7.2,1.2,14.1,3,21.4,5c3.2,0.9,6.4,1.7,9.7,2.6l1.2,0.3l0.1-1.2c1.6-21.9,0-27.9-15.5-31.7c-12.3-3-25-4.5-37.7-4.5
			c-28.7,0-59.2,7.6-96,23.8l-0.7,0.3l0.2,0.8C33.9,59.4,35,64.8,36,70l0.4,1.7c2.5,12.3,4.8,23.8,7.8,35.2
			c3.5,13.2,7.3,26.4,10.9,39.3l0.1,0.5c4.5,15.7,9.6,33.5,13.9,50.9c3.5,13.9,6.5,28.7,5.3,42.9C71.7,274.6,68.1,311,61,346.4
			c-6.4,32.4-7.9,61.6-4.4,89.4c1.1,8.9,2.5,17.6,4.1,27.6l0.3,1.9c0.7,4.3,1.4,8.9,2.2,13.7l0.4,2.7l1.4-2.4
			c9.9-16.5,10.3-17.8,10.5-34.4l0.2-17.7c0.1-15.5,0.3-33.1,0.7-50.1c0.1-4.7,0.8-9.4,1.6-15.4l0.1-0.4c0.3-2.4,0.7-5.1,1.1-8.1
			c11.1,14.8,12.3,28.2,11.9,40.6c-1.3,41.7,7.1,80.9,20.2,127.1c1.6,5.7,3,11.5,4.4,17.1c1.3,5.2,2.7,11.2,4.3,16.8
			c0.7,2.6,2,5.1,3.8,8.5l0.3,0.6c0.9,1.8,2,3.8,3.2,6.3l1,2.2l0.8-2.3c1.4-3.9,2.9-7.4,4.2-10.5c2.7-6.4,5-11.8,5.1-17.3
			c0.2-9.2-1.1-18.5-2.3-27.5l-0.1-0.7c-0.6-4.3-1.2-8.8-1.6-13.2c-0.6-6.3-1.2-12.5-2-19.4c-1.9-18.5-3.9-37.7-4.6-56.7l0-1.5
			c-0.4-12.2-0.8-23.6-5.9-35c-0.2-0.5-0.4-0.9-0.6-1.4C118.7,380.8,115.9,374.6,120.4,365.3z M216.9,418.5c0,1.4-0.1,2.5-0.2,3.6
			l0,0.3c-0.2,2.1-0.3,3.6,0.4,4.8C251.6,491.4,299,529.3,358,539.8c14.7,2.6,29.2,3.9,43.3,3.9c68.2,0,127.9-30.9,177.6-91.8
			c7.7-9.5,11-19.8,10.2-32.3l-0.1-1.3l-1.2,0.4c-1.5,0.5-2.8,0.9-4,1.2l-0.6,0.2c-2.8,0.8-5,1.4-7,2.6c-6.8,3.9-13.9,5.9-21.2,5.9
			c-6.5,0-13.2-1.6-19.8-4.8c-16.9-8-36.7-17.9-55.5-29.7c-24-15.1-52.7-37.3-61.9-75c-2.2-9-8.3-14-18-14.8c-0.5,0-0.9-0.1-1.4-0.1
			c-7.1,0-11.7,4.7-14.1,14.3c-6.1,24.3-20.8,44.5-44.9,61.8c-12.5,9-23.2,16.4-34.3,23.2c-16.8,10.3-35.9,22.1-56.8,22.1
			c-10.1,0-19.9-2.7-29.8-8.2l-1.5-0.8v1.2L216.9,418.5z M414.9,84.4c-57.9,0-109.5,20.2-141.6,55.3l-0.6,0.6l0.5,0.7
			c37.5,48,79.9,93.8,129.6,139.9l0.7,0.7l0.7-0.7c7.8-8.1,15.7-16.2,23.3-24l2.7-2.7c40.9-42,79.6-81.6,112.1-129.5l0.5-0.8
			l-0.8-0.6C509.2,98.5,462.9,84.4,414.9,84.4z"/>
		<path class="st0" d="M133.5,16.5c8.1,0,16.3,0.5,24.6,1.5c17.1,2,26.5,5.2,32.5,11.2c6,6,9.3,15.3,11.3,32.3
			c0.3,2.9,0.4,5.9,0.5,8.3l0,0.3c0,1,0.1,2,0.1,2.9l0,0.2l0,0.4l0.4,0.3l53.3,43l0.6,0.4l0.6-0.4l0.3-0.2
			c49.4-30.9,98.8-46.6,146.8-46.6c48,0,95.9,15.7,142.5,46.6l0.3,0.2l0.6,0.4l0.6-0.5L599,76.7l0.3-0.2l0.1-0.4l0-0.2
			c0.3-2.1,0.8-4.4,1.3-7.4c1-5.5,2.1-11.6,2.7-17.7c1.4-16,10.3-25.1,28.2-28.6c12.8-2.5,25.5-3.8,37.9-3.8
			c34.6,0,68,9.9,99.4,29.6c8.2,5.1,12,13,12.2,25c0.1,10-1.2,20.7-4,31.9c-5.4,21.6-11.7,44.3-18.8,67.3
			c-13.2,42.8-12.5,86.5-10.4,119.8c1.6,24.9,6.8,50,11.6,71.3c5.1,22.3,6.3,42.7,3.7,62.3c-1,7.2-1.7,14.5-2.4,21.6l0,0.2l-0.1,0.6
			c-0.8,8.3-1.7,17-2.9,25.4c-2.3,15.5-5.6,20.8-13.2,20.8c-3.6,0-8.4-1.1-15.3-3.7c-0.8-0.3-1.6-0.6-2.6-0.9l-1.7-0.6l-4.1-1.5
			l-1-0.3l-0.3,1l-0.2,0.5c-1.8,5.4-3.4,10.6-5.1,15.6l-0.3,1.1c-3.7,11.4-7.1,22.2-10.9,32.8c-2.9,8.1-6.4,16.1-10.4,23.8l-0.4,0.8
			c-3.6,6.9-7.1,13.5-15.7,13.5c-0.5,0-1.1,0-1.7-0.1c-9.2-0.8-19.8-7.2-21.4-19.1c-1.6-12.4-0.7-25.4,0.5-38.7
			c0.3-3.3,0.6-6.7,1-9.9l0.2-2.2l0-0.1c1.7-16.8,3.4-34.1,2.2-52.5l-0.1-1.5l-0.2-3l-1.6,2.5l-0.8,1.3c-0.8,1.2-1.6,2.4-2.2,3.2
			l-0.1,0.1c-1.6,2.3-3.4,4.7-4.6,7.4c-6.9,14.8-14.1,30.3-19.8,42.7c-10.3,22.2-19.5,42.2-29,62.3c-5.2,11-8.9,14.7-14.7,14.7
			c-2.1,0-4.8-0.5-8.3-1.6c-11.5-3.6-14.5-9.2-12.8-24c0.9-8.2,1.8-16.3,2.9-25.7l0.4-3.3c0.6-5.1,2-17.5,2-17.5l0.2-2.1l-1.8,1.1
			L566,511c-47.1,29.5-93.3,43.8-141.3,43.8c-10.4,0-21.1-0.7-31.7-2.1c-63.1-8.2-116.1-31.8-161.9-72.2l-0.9-0.8l-1.9-1.7l0.2,2.5
			l0.1,1.3c0.3,3,0.5,5.5,0.7,7.9l0,0.5c0.3,3.8,0.5,6.6,1,9.4c1,6.7,2.1,13.4,3.2,20.3c2.1,13.1,4.3,26.6,5.9,40.1
			c1.4,11.8-2.3,16.7-14.9,20.4c-2.1,0.6-4,0.9-5.7,0.9c-7.5,0-11.3-6-14.3-12.6c-10.1-21.9-20.8-44.6-30.1-64.6l-2.4-5.2
			c-4.6-9.7-9.1-19.5-13.7-29.3l-0.8-1.8l0-0.1c-2.7-5.9-5.5-11.9-10.4-17.7l-0.8-1l-1.6-1.9l-0.2,2.5l-0.1,1.2
			c-1.6,24,1.1,46.7,3.9,65.7c1.7,11.3,2.4,21.2,2.2,30.1c-0.1,4.9-1.9,10.6-5,15.7c-4.3,7.1-10.8,11.4-17.5,11.4
			c-6.6,0-12.4-4-16-11.1c-6.6-13.1-11.8-27.3-16.9-41l-0.1-0.2c-1.6-4.2-3.2-8.8-5-13.3c-1.7-4.5-3-9.1-4.3-13.9l0-0.1l-0.3-1
			c-0.6-2-1.1-4-1.7-6.1l-0.1-0.4l-0.3-0.8l-0.9,0.1l-0.4,0.1c-1,0.2-1.9,0.3-2.7,0.4c-1.6,0.2-3,0.4-4.4,0.9
			c-8.3,3-13.4,4.2-17.3,4.2c-6.6,0-10.4-3.3-12.8-21.4c-4.8-36.7-9.1-79.5,1-123.1C62.6,275.8,58.8,203.7,34.7,133l-1.3-3.7l0-0.1
			C26.7,109.6,19.8,89.4,21,67.6c0.6-12,6-17.6,14.5-22.9C65.4,26,98.3,16.5,133.5,16.5 M63.4,483.1l1.4-2.4l0.7-1.2
			c10-16.6,10.4-17.9,10.6-34.6c0-3,0.1-5.9,0.1-8.9c0-3,0.1-5.9,0.1-8.9c0.1-15.5,0.3-33,0.7-50.1c0.1-4.7,0.8-9.4,1.6-15.3l0-0.2
			l0-0.3c0.3-2.1,0.6-4.4,0.9-6.9c10.3,14.2,11.5,27.3,11.1,39.3c-1.3,41.7,7.2,81,20.2,127.2c1.6,5.7,3,11.4,4.4,17
			c1.3,5.2,2.7,11.2,4.3,16.9c0.7,2.7,2,5.1,3.8,8.6l0.3,0.5c0.9,1.8,2,3.9,3.2,6.4l0.5,1.1l1,2.2l0.8-2.3l0.4-1.1
			c1.4-3.9,2.9-7.4,4.2-10.5l0-0.1c2.7-6.4,5-11.9,5.1-17.5c0.2-9.2-1.1-18.6-2.3-27.6l-0.1-0.7c-0.6-4.3-1.2-8.8-1.6-13.2
			c-0.6-6.3-1.3-12.8-2-19.4c-1.9-18.5-3.9-37.7-4.6-56.6l-0.1-1.5l0-0.1c-0.4-12.2-0.8-23.6-5.9-35.1c-0.2-0.5-0.4-0.9-0.6-1.4
			c-2.7-6.1-5.3-11.8-1.4-20.4c12.9,16.4,20.8,34,28.5,51.1l0.1,0.2c2.2,4.9,4.5,10,6.8,14.9c7.3,15.4,15.5,31.2,22.6,45.2
			c4.2,8.3,8,15.7,11.8,23.2c4.2,8.3,7.2,17.1,10.3,26.3l0,0.1c5.1,14.9,10.3,30.3,21.1,44.8l0.6,0.8l1.2,1.6l0.6-1.9l0.3-1
			c5.4-17.6,1.8-30.9-2.2-43c-13.6-40.5-21.6-78.1-24.6-114.8c-0.9-10.8-5.5-18.9-14.2-24.8c-4.2-2.9-8.5-5.9-12.7-8.7l-0.5-0.3
			c-8.2-5.7-17.4-12.1-26.6-18c-9.9-6.3-14.9-13.8-15.7-23.5c1.8-0.9,3.5-1.3,5-1.3c3.8,0,6.5,2.6,9.4,5.4l0.2,0.2
			c0.8,0.8,1.6,1.6,2.4,2.3c28.7,24.5,61.4,46.4,100,67l0.1,0.1c6,3.2,12.2,6.5,18.9,6.5c4,0,7.7-1.2,11.2-3.6
			c4.9-3.3,9.9-6.7,14.7-9.9l1.5-1c17.3-11.6,35.2-23.5,51.9-36.6c14.1-11.1,24.3-27.4,32.1-51.5l0.1-0.3l0.2-0.6l-0.5-0.4l-0.3-0.2
			c-3.7-3.2-7.1-4.8-10.4-4.8c-3.9,0-7.4,2.2-10.9,6.6c-10.7,13.5-24.7,23.5-44,31.2l42.9-38.1l1-0.9l-1.2-0.7l-0.6-0.4
			c-4.1-2.4-8.1-4.6-11.9-6.8l-2.8-1.6c-9.1-5.2-18.6-10.5-27.6-16c-14.9-9.1-30.6-18.9-47.9-30.2c-7.1-4.6-13.6-6.8-20.1-6.8
			c-3.9,0-7.8,0.9-11.7,2.5l3.7-7l0.5-1l-1.1-0.4l-0.5-0.2c-3.2-1.2-6.3-2.4-9.8-3.6c-6.9-2.5-13.3-4.9-19.6-7.6
			c-2.4-1-5-1.7-7.5-2.3c-6-1.5-12.8-3.3-18.9-10.7c4.4,0.6,8.5,1.1,12.4,1.6c9.8,1.2,18.3,2.1,26.3,4.5
			c34.7,10.3,66.9,25.8,95.7,46c14.4,10.1,30.2,18.5,45.4,26.7l0.1,0l3.6,1.9c5.8,3.1,13.2,5.4,21.3,6.5c0.4,0,0.7,0.1,1.1,0.1
			c3.8,0,9.4-2.5,11-5.6c1.4-2.8,0.8-7.1-1.8-13.2c-0.8-1.9-2.8-3.1-4.5-4.2c-0.9-0.5-1.8-1.1-2.5-1.8
			c-36.9-32.9-79.1-71.8-113.2-117.9c-9.3-12.5-20.5-25.2-33.3-37.8c-28.9-28.2-65.4-41.9-94-50.7c-5.7-1.8-11.3-4.2-17.3-6.8
			l-0.6-0.3c-2.1-0.9-4.3-1.9-6.5-2.8c4.4-3.9,8.9-5.8,14.3-5.8c3.6,0,7.1,0.8,10.6,1.5l0.3,0.1c1.6,0.3,3.3,0.7,4.9,1
			c7.1,1.2,14,3,21.3,5l0.1,0c3.1,0.8,6.4,1.7,9.6,2.5l0.6,0.1l1.2,0.3l0.1-1.2l0-0.6c1.6-21.9-0.2-28.4-15.9-32.2
			c-12.4-3-25.1-4.5-37.8-4.5c-28.7,0-59.3,7.6-96.2,23.8l-0.4,0.2L32,52.8l0.2,0.8l0.1,0.4c1.2,5.5,2.3,10.9,3.3,16.1l0.3,1.6
			l0,0.1c2.5,12.3,4.8,23.8,7.8,35.3c3.5,13.1,7.3,26.4,10.9,39.3l0.1,0.5c4.5,15.7,9.6,33.5,13.9,50.8c3.5,13.9,6.5,28.6,5.3,42.7
			c-2.9,34.1-6.5,70.6-13.5,105.9c-6.5,32.5-7.9,61.7-4.4,89.5c1.1,8.9,2.5,17.6,4.1,27.7l0,0.3l0.3,1.6c0.7,4.3,1.4,8.9,2.2,13.7
			l0.2,1.4L63.4,483.1 M621,68.2l1-0.2l0.5-0.1c25.2-5.2,37.9-7.8,45.5-7.8c6.2,0,9,1.7,13.6,5.4c-2.7,1-5.3,2-7.9,3l-1.3,0.5
			l-0.4,0.2c-7.9,3-15.4,5.8-23.1,8.2c-44.6,13.9-78.4,36.1-103.3,68c-42.9,55-85.1,99.5-129,136c-8,6.7-9.5,14.2-4.9,24.3l0.2,0.4
			l0.3,0.7l0.8-0.1l0.4-0.1c1.8-0.3,3.6-0.5,5.3-0.7l0.3,0c4.2-0.5,8.1-0.9,11.6-2.7c3.9-2,7.9-4,11.8-5.9l1.2-0.6
			c16.3-8.1,33.1-16.5,48.4-26.8c29.9-20.2,61.9-35.4,98-46.5c5.8-1.8,12.6-3.7,19.4-3.7c5.1,0,9.8,1,14.3,3.2l-54.2,19.9l-1,0.4
			l0.4,1l2.6,6c-3.3-1.3-6.7-1.9-9.9-1.9c-5.6,0-11,1.7-16.8,5.2c-21.8,13.4-44,26.9-66.7,40.8c-8.6,5.3-17.3,10.5-26,15.8l-0.6,0.3
			l-1.1,0.7l1,0.9l0.5,0.5c3.6,3.3,7,6.8,10.4,10.2l0.6,0.6c12.8,13,24.9,25.3,43.4,30.3c5.7,1.6,10.7,2.3,15.2,2.3
			c10.4,0,18.8-4.1,25.8-12.6c5.2-6.3,10.9-11.8,17-16.4c9-6.8,13.3-15.2,13.8-27.1c0.4-10.1,1.6-20.3,2.8-30.2l0.1-1
			c0.4-3.3,0.8-6.8,1.2-10.2c7.4,2.9,10.5,7.5,10.5,15.3c-0.1,28.8-2.4,53.9-28.4,69.5c-3.3,2-5.8,5.1-8.1,7.9l-0.1,0.1
			c-5.7,7-12.7,10.4-21.3,10.4c-3.9,0-8.3-0.7-12.9-2.2l-1.2-0.4c-26.2-8.2-53.2-16.6-71.1-40.1c-3.5-4.6-7.1-6.8-11-6.8
			c-3.3,0-6.6,1.5-10.3,4.6l-0.2,0.2l-0.5,0.4l0.2,0.6l0.1,0.3c8.2,25.6,19.9,43.4,36.7,56.2c8.3,6.3,16.9,12,25.3,17.6l0.2,0.1
			c8.9,5.9,18,12,26.5,18.5c7.6,5.9,15,8.7,22.8,8.7c7.4,0,15.2-2.5,25-8.1c38.9-22.1,69.3-42.9,95.7-65.6c0.5-0.4,1-0.9,1.5-1.4
			l0.5-0.5c2.4-2.3,5-4.7,8.1-4.7c1.6,0,3.3,0.6,5.2,1.8c-0.7,9.5-5.7,16.9-15.8,23.3c-5.4,3.4-10.7,7-15.8,10.6l-0.3,0.2
			c-5.7,3.9-12.1,8.3-18.5,12.2c-13.6,8.2-20.4,20.5-20.9,37.5c-1,34.1-10.7,67.2-19.8,95.7l-0.5,1.6l0,0.1
			c-2.7,8.4-5.5,17.1-6.9,26c-0.1,0.5-0.2,1.1-0.3,1.6l0,0.3c-1.2,7-2.5,14.8,5.2,23.6l0.5,0.6l1,1.2l0.6-1.4l0.3-0.7
			c1.7-3.8,3.4-7.3,4.9-10.3c3.2-6.6,6.1-12.8,8.4-19.2c12.2-34.9,29.2-68.3,45.6-100.6c9.9-19.4,20.1-39.5,29.2-59.7
			c1.6-3.7,4.5-7,8-11.2c1.3-1.6,2.7-3.2,4.2-5.1c0.1,2,0.2,3.7,0.3,5.3l0,0.1c0.3,4,0.5,6.6-0.5,8.2c-9.9,17.4-9.5,36.1-9,54.3
			c0.1,2.3,0.1,5.3,0.2,8.3c0.1,6.9-0.8,14.1-1.7,21l0,0.2l0,0.4c-1.1,8.8-2.4,17.6-3.6,26.1l-0.2,1.4c-1.9,13.7-3.9,27.9-5.5,41.9
			c-1.3,11.4-0.9,24.5,12,35.6l0.5,0.5l1.1,0.9l0.5-1.3l0.3-0.7c0.8-2.3,1.6-4.3,2.4-6.3l0.1-0.4c1.6-4.1,2.9-7.7,3.9-11.4
			c1.9-7.1,3.6-14.4,5.3-21.4l0.1-0.6c2.9-12.3,6-25,9.8-37.2c7-22.4,10.6-46.5,11-73.6c0.2-14.1,2.6-28.5,4.9-42.4
			c0.5-3.1,1-6.2,1.5-9.3c0.2-1.5,1.8-3,4.2-5.4l0,0c0.8-0.8,1.8-1.8,2.8-2.9c0.2,6.4,0.4,12.4,0.6,18.9l0,0.5
			c0.4,15.5,0.8,28.9,1.9,42.5c0.4,5.3,0.2,10.9,0.1,16.2l0,0.1c-0.5,14.4-1,29.3,9.8,42.7l0.7,0.9l1.4,1.7l0.4-2.2l0.2-1.1
			c0.6-3.5,1.3-7.1,1.9-10.5l0.5-2.6c4.8-26,9.7-52.8,6.4-79.9c-2.3-19.2-5.2-38.6-7.8-55.8c-3.1-21.3-6.4-43.3-8.9-65.3
			c-1.6-13.9-3.2-34.6,0.7-53.6c4.9-24.1,11.8-48.2,18.5-71.5l0.1-0.2l0.7-2.3c2.2-7.6,4.4-15.4,6.5-23c0.2-0.8,0.4-1.5,0.6-2.3
			c0.2-0.8,0.4-1.5,0.6-2.3l0-0.1c4.8-17.1,9.7-34.9,8.7-54.4l0-0.3l0-0.6l-0.6-0.2l-0.3-0.1c-33.4-15.2-64.2-22.5-94.2-22.5
			c-10.2,0-20.4,0.9-30.5,2.6c-11,1.9-17,4.7-20.2,9.3c-3.4,4.9-3.8,11.6-1.3,24.1l0.1,0.5L621,68.2 M403.6,282.3l0.7-0.7l0.3-0.4
			c7.7-8.1,15.6-16.2,23.3-24l2.7-2.8c40.9-42,79.6-81.6,112.1-129.6l0.3-0.4l0.5-0.8l-0.8-0.6l-0.4-0.3
			C509.5,98.1,463,83.9,414.9,83.9c-58,0-109.8,20.2-142,55.5l-0.3,0.3l-0.6,0.6l0.5,0.7l0.3,0.3c37.5,48,79.9,93.8,129.7,140
			l0.4,0.3L403.6,282.3 M248.3,425.4c-10,0-19.7-2.7-29.6-8.1l-0.7-0.4l-1.5-0.8v1.5h0v1c0,1.3-0.1,2.5-0.2,3.5l0,0.3
			c-0.2,2.1-0.3,3.7,0.5,5.1c34.5,64.4,82,102.4,141.2,112.9c14.7,2.6,29.3,4,43.4,4c68.3,0,128.2-30.9,178-91.9
			c7.8-9.6,11.1-20,10.3-32.6l0-0.6l-0.1-1.3l-1.2,0.4l-0.6,0.2c-1.5,0.5-2.8,0.9-4.1,1.2l-0.5,0.2c-2.8,0.8-5,1.4-7,2.6
			c-6.7,3.9-13.8,5.9-21,5.9c-6.4,0-13-1.6-19.6-4.7c-16.9-8-36.7-17.9-55.5-29.7c-23.9-15.1-52.6-37.2-61.7-74.7
			c-2.3-9.3-8.5-14.4-18.5-15.2c-0.5,0-1-0.1-1.4-0.1c-7.3,0-12.1,4.8-14.6,14.7c-6.1,24.2-20.7,44.3-44.7,61.5
			c-12.5,9-23.1,16.4-34.3,23.2C288,413.7,268.9,425.4,248.3,425.4 M133.5,15.5C98.2,15.5,65,25,34.9,43.8
			C26.2,49.3,20.7,55.2,20,67.5c-1.2,22,5.8,42.4,12.5,62l1.3,3.7c24,70.6,27.8,142.5,11.1,213.6c-10.2,43.7-5.9,86.6-1.1,123.4
			c2.2,16.9,5.6,22.3,13.8,22.3c4,0,9.2-1.3,17.6-4.3c1.2-0.5,2.6-0.6,4.2-0.8c0.8-0.1,1.7-0.2,2.7-0.4l0.4-0.1l0.1,0.4
			c0.7,2.4,1.4,4.8,2,7c1.4,5,2.7,9.6,4.4,14.2c1.7,4.4,3.4,8.9,5,13.3c5.1,13.8,10.3,28,17,41.3c3.7,7.4,9.8,11.6,16.9,11.6
			c7.1,0,13.9-4.4,18.4-11.9c3.1-5.2,5-11.2,5.1-16.2c0.2-9-0.5-18.9-2.2-30.2c-2.8-19-5.5-41.6-3.9-65.5l0.1-1.2l0.8,1
			c4.7,5.6,7.5,11.7,10.2,17.5l0.8,1.8c5.4,11.5,10.8,23,16.1,34.4c9.9,21.1,20.2,43,30.1,64.6c3.1,6.8,7.2,13.1,15.2,13.1
			c1.8,0,3.8-0.3,6-0.9c13.1-3.8,17-9.2,15.6-21.4c-1.6-13.4-3.7-27-5.9-40.1c-1.1-6.7-2.2-13.5-3.2-20.3c-0.4-2.9-0.7-5.8-1-9.8
			c-0.2-2.2-0.4-4.8-0.7-7.9l-0.1-1.2l0.9,0.8c45.9,40.5,99,64.2,162.4,72.4c10.7,1.4,21.4,2.1,31.8,2.1c48.2,0,94.6-14.4,141.9-44
			l0.9-0.5c0,0-1.4,12.4-2,17.5c-1.2,10.6-2.3,19.8-3.3,29c-1.7,15.2,1.6,21.3,13.5,25c3.6,1.1,6.3,1.6,8.6,1.6
			c6.2,0,10.2-3.9,15.6-15.3c9.8-20.7,19.6-41.9,29-62.3c6.5-14,13.2-28.5,19.8-42.7c1.2-2.6,2.9-5,4.6-7.3c0.8-1.1,1.5-2.2,2.3-3.3
			l0.8-1.3l0.1,1.5c1.2,18.3-0.6,35.6-2.2,52.4c-0.4,4-0.8,8.1-1.2,12.1c-1.2,13.3-2.2,26.3-0.5,38.9c1.6,12.5,12.7,19.1,22.3,20
			c0.6,0,1.2,0.1,1.8,0.1c9.2,0,12.9-7.1,16.6-14l0.4-0.8c4.1-7.8,7.6-15.8,10.5-24c3.9-11,7.5-22.1,11.2-33.9
			c1.6-5.1,3.3-10.3,5-15.6l0.2-0.5l4.1,1.5c1.7,0.6,3,1.1,4.2,1.5c7.1,2.6,11.9,3.7,15.7,3.7c8.2,0,11.8-5.5,14.2-21.6
			c1.3-8.6,2.1-17.4,3-26c0.7-7.2,1.5-14.6,2.4-21.9c2.6-19.7,1.4-40.2-3.8-62.7c-4.9-21.2-10.1-46.3-11.6-71.1
			c-2.1-33.2-2.8-76.9,10.4-119.5c7.1-23,13.4-45.7,18.8-67.4c2.8-11.3,4.2-22.1,4-32.1c-0.2-12.3-4.2-20.5-12.7-25.8
			c-31.6-19.7-65.2-29.7-100-29.7c-12.4,0-25.2,1.3-38.1,3.8c-18.4,3.6-27.6,13-29,29.5c-0.5,6-1.6,11.9-2.6,17.6
			c-0.5,2.6-0.9,5-1.3,7.5l0,0.2L547.7,116l-0.3-0.2c-46.7-31-94.8-46.8-143-46.8s-97.8,15.7-147.3,46.8l-0.3,0.2l-53.3-43l0-0.2
			c0-0.8-0.1-1.8-0.1-2.8c-0.1-2.5-0.2-5.6-0.5-8.6C199.1,29,190.7,20.7,158.2,17C149.9,16,141.6,15.5,133.5,15.5L133.5,15.5z
			 M64,480.2l-0.2-1.4c-0.8-5.4-1.7-10.4-2.4-15.2c-1.6-10.2-3-18.9-4.2-28c-3.5-27.6-2.1-56.8,4.3-89.2c7-35.4,10.6-71.9,13.5-106
			c1.2-14.2-1.9-29.1-5.3-43c-4.2-17.1-9.2-34.2-13.9-50.9c-3.7-13-7.6-26.5-11.1-39.8c-3-11.4-5.4-23-7.8-35.3
			c-1.2-5.7-2.4-11.6-3.7-17.7l-0.1-0.4l0.4-0.2c36.8-16.2,67.2-23.7,95.8-23.7c12.6,0,25.3,1.5,37.6,4.5
			c15.1,3.7,16.8,9.6,15.2,31.2l0,0.6l-0.6-0.1c-3.2-0.8-6.5-1.7-9.6-2.5c-7.3-2-14.3-3.9-21.5-5c-1.7-0.3-3.5-0.7-5.2-1
			c-3.5-0.8-7.1-1.6-10.8-1.6c-6.1,0-11.2,2.2-16.1,7.1c3,1.2,5.8,2.5,8.5,3.6c6,2.6,11.6,5.1,17.4,6.9
			c28.5,8.8,64.9,22.5,93.6,50.5c12.8,12.5,24,25.1,33.2,37.6c34.2,46.2,76.5,85.1,113.3,118c0.8,0.7,1.7,1.3,2.6,1.9
			c1.7,1.1,3.4,2.2,4.1,3.8c2.5,5.7,3.1,9.8,1.9,12.3c-1.4,2.8-6.6,5.1-10.1,5.1c-0.3,0-0.7,0-1-0.1c-8-1.1-15.2-3.3-20.9-6.4
			l-3.6-1.9c-15.3-8.2-31.1-16.7-45.4-26.7c-29-20.3-61.3-35.8-96-46.1c-8.1-2.4-16.6-3.4-26.4-4.6c-4.7-0.6-9.5-1.1-14.8-1.9
			c6.6,9.3,14.2,11.3,20.9,13c2.6,0.7,5,1.3,7.4,2.3c6.3,2.7,12.8,5.1,19.7,7.6c3.1,1.1,6.4,2.3,9.7,3.6l0.5,0.2l-5.1,9.7
			c4.6-2.5,9.3-3.8,14-3.8c6.3,0,12.6,2.2,19.5,6.6c17.5,11.3,33.1,21.2,47.9,30.2c8.8,5.3,18,10.5,27.6,16
			c4.7,2.6,9.5,5.4,14.6,8.3l0.6,0.4l-47,41.8c22.1-8,37.9-18.7,49.5-33.4c3.3-4.2,6.6-6.2,10.2-6.2c3.1,0,6.2,1.5,9.8,4.5l0.2,0.2
			l-0.1,0.3c-7.8,23.9-17.9,40.1-31.8,51c-16.6,13-34.5,25-51.8,36.5c-5.3,3.6-10.8,7.2-16.2,10.9c-3.4,2.3-6.9,3.4-10.7,3.4
			c-6.4,0-12.5-3.3-18.4-6.4l-0.1-0.1c-38.5-20.6-71.2-42.5-99.8-66.9c-0.9-0.7-1.8-1.6-2.6-2.4c-2.9-2.8-5.9-5.7-10.1-5.7
			c-1.9,0-3.9,0.6-6.1,1.7c0.6,10.3,5.8,18.3,16.2,24.9c9,5.8,18,11.9,26.6,17.9c4.3,3,8.8,6.1,13.2,9.1c8.5,5.8,13,13.6,13.8,24.1
			c2.9,36.9,11,74.5,24.6,115.1c4,12,7.5,25.1,2.2,42.4l-0.3,1l-0.6-0.8c-10.7-14.4-15.9-29.7-21-44.6c-3.2-9.3-6.2-18.1-10.4-26.5
			c-3.9-7.8-7.9-15.6-11.8-23.2c-7.6-14.7-15.4-30-22.6-45.2c-2.4-5-4.7-10.1-6.9-15.1c-7.9-17.6-16-35.7-29.6-52.5
			c-5.1,9.9-2.1,16.4,0.7,22.7c0.2,0.5,0.4,0.9,0.6,1.4c5,11.3,5.4,22.7,5.8,34.8l0.1,1.5c0.7,18.9,2.7,38.1,4.6,56.7
			c0.7,6.3,1.3,12.9,2,19.4c0.4,4.6,1.1,9.3,1.7,13.9c1.2,9,2.5,18.3,2.3,27.4c-0.1,5.4-2.4,10.8-5.1,17.1
			c-1.3,3.1-2.8,6.7-4.2,10.6l-0.4,1.1l-0.5-1.1c-1.3-2.8-2.5-5-3.5-6.9c-1.8-3.4-3-5.8-3.8-8.4c-1.6-5.6-3-11.3-4.3-16.8
			c-1.4-5.6-2.8-11.4-4.4-17.1c-13.1-46.1-21.5-85.3-20.2-126.9c0.4-12.8-0.9-26.7-12.8-41.9c-0.4,3.6-0.9,6.8-1.3,9.6
			c-0.8,6.1-1.5,10.8-1.6,15.6c-0.4,16.7-0.6,33.7-0.7,50.1c-0.1,5.9-0.1,11.8-0.2,17.7c-0.2,16.4-0.6,17.7-10.4,34.1L64,480.2
			L64,480.2z M621.8,67l-0.1-0.5c-2.3-12.2-2-18.7,1.2-23.3c3-4.4,8.9-7,19.6-8.9c10-1.7,20.2-2.6,30.3-2.6
			c29.8,0,60.5,7.3,93.7,22.4l0.3,0.1l0,0.3c1,19.4-3.9,37.1-8.7,54.1c-0.4,1.5-0.8,3-1.2,4.5c-2.3,8.5-4.8,17-7.2,25.3
			c-6.7,23.4-13.7,47.6-18.6,71.8c-3.9,19.1-2.3,39.9-0.7,53.9c2.5,21.8,5.7,43.9,8.9,65.3c2.7,18.2,5.5,37.1,7.8,55.7
			c3.3,26.9-1.6,53.7-6.4,79.6c-0.8,4.4-1.6,8.8-2.4,13.1l-0.2,1.1l-0.7-0.9c-10.6-13.1-10.1-27.8-9.6-42.1c0.2-5.4,0.4-11,0-16.4
			c-1.1-13.8-1.5-27.3-2-43c-0.2-6.8-0.4-13.9-0.7-21.4c-1.7,1.9-3.2,3.5-4.5,4.7c-2.5,2.5-4.2,4.2-4.5,6c-0.5,3.1-1,6.2-1.5,9.3
			c-2.3,14-4.7,28.4-4.9,42.6c-0.4,27-3.9,51-10.9,73.3c-3.9,12.4-7,25.4-10,37.9c-1.7,7-3.4,14.3-5.3,21.4c-1,3.7-2.3,7.2-3.9,11.3
			c-0.8,2.1-1.6,4.2-2.5,6.7l-0.2,0.7l-0.5-0.5c-12.5-10.8-12.9-23.6-11.6-34.7c1.6-14.5,3.7-29.1,5.7-43.3
			c1.2-8.5,2.4-17.4,3.6-26.1l0.1-0.4c0.9-7,1.9-14.2,1.8-21.3c0-2.8-0.1-5.5-0.2-8.3c-0.4-18-0.9-36.6,8.9-53.8
			c1.1-1.9,0.9-4.7,0.6-8.9c-0.2-2.2-0.3-4.8-0.4-8c-2.2,2.8-4.1,5.1-5.9,7.2c-3.6,4.3-6.5,7.7-8.2,11.5
			c-9.1,20.2-19.3,40.3-29.2,59.7c-16.5,32.3-33.5,65.7-45.6,100.7c-2.2,6.3-5.2,12.5-8.3,19.1c-1.6,3.3-3.2,6.7-4.9,10.4l-0.3,0.7
			l-0.5-0.6c-7.4-8.4-6.1-16-5-22.8c0.1-0.6,0.2-1.3,0.3-1.9c1.4-8.8,4.2-17.5,6.9-26l0.5-1.6c9.1-28.5,18.9-61.8,19.9-95.9
			c0.5-16.7,7.2-28.7,20.4-36.7c6.3-3.8,12.5-8.1,18.5-12.2c5.2-3.6,10.6-7.3,16.1-10.7c10.6-6.6,15.8-14.5,16.3-24.6
			c-2.2-1.5-4.3-2.3-6.2-2.3c-3.5,0-6.2,2.5-8.8,4.9c-0.7,0.6-1.3,1.2-2,1.8c-26.3,22.7-56.7,43.5-95.5,65.5
			c-9.7,5.5-17.2,7.9-24.5,7.9c-7.5,0-14.8-2.8-22.1-8.5c-8.6-6.6-17.8-12.8-26.7-18.7c-8.4-5.6-17.1-11.3-25.2-17.5
			c-16.6-12.6-28.1-30.3-36.3-55.7l-0.1-0.3l0.2-0.2c3.5-3,6.7-4.4,9.7-4.4c3.6,0,6.9,2.1,10.2,6.4c18,23.7,45.3,32.2,71.6,40.5
			l1.2,0.4c4.7,1.5,9.2,2.2,13.2,2.2c8.9,0,16.1-3.5,22.1-10.8l0.1-0.1c2.3-2.9,4.8-5.8,7.8-7.6c26.5-15.9,28.8-41.3,28.9-70.4
			c0-8.7-3.7-13.8-12.3-16.7c-0.4,4.2-0.9,8.4-1.4,12.4c-1.2,9.9-2.4,20.2-2.8,30.3c-0.5,11.6-4.6,19.8-13.4,26.4
			c-6.2,4.6-11.9,10.2-17.1,16.5c-6.8,8.2-15,12.2-25,12.2c-4.4,0-9.3-0.7-14.9-2.3c-18.2-4.9-30.2-17.1-42.9-30.1
			c-3.5-3.6-7.2-7.3-11-10.8l-0.5-0.4l0.6-0.3c8.7-5.3,17.3-10.6,26-15.8c21.9-13.3,44.6-27.1,66.7-40.8c5.6-3.4,10.9-5.1,16.2-5.1
			c3.9,0,7.9,0.9,11.9,2.8l-3.6-8.3l56.3-20.7c-5.3-2.9-10.8-4.4-16.8-4.4c-6.9,0-13.8,1.9-19.6,3.7c-36.1,11.1-68.3,26.4-98.3,46.6
			c-15.2,10.3-32,18.7-48.3,26.8c-4.3,2.2-8.7,4.3-13,6.5c-3.3,1.7-7.1,2.1-11.2,2.6c-1.9,0.2-3.8,0.4-5.7,0.8l-0.4,0.1l-0.2-0.4
			c-4.5-9.8-3.1-16.7,4.6-23.1c43.9-36.6,86.2-81.1,129.2-136.1c24.8-31.7,58.4-53.8,102.8-67.6c7.8-2.4,15.5-5.3,23.5-8.4
			c3.5-1.3,7.1-2.7,10.9-4.1c-5.5-4.5-8.5-6.7-15.6-6.7c-7.7,0-20.4,2.6-45.7,7.8L621.8,67L621.8,67z M403.5,280.9l-0.4-0.3
			c-49.7-46.1-92.1-91.8-129.6-139.9l-0.3-0.3l0.3-0.3c32-35.1,83.5-55.2,141.2-55.2c47.9,0,94.2,14.1,126.9,38.7l0.4,0.3l-0.3,0.4
			c-32.5,47.9-71.1,87.5-112,129.4c-8.5,8.7-17.3,17.8-26,26.8L403.5,280.9L403.5,280.9z M248.3,426.4c21,0,40.1-11.8,57-22.1
			c11.2-6.9,21.8-14.3,34.3-23.3c24.2-17.3,38.9-37.6,45.1-62c2.4-9.4,6.8-13.9,13.7-13.9c0.4,0,0.9,0,1.3,0.1
			c9.5,0.8,15.5,5.7,17.6,14.5c9.2,37.8,38.1,60.1,62.2,75.3c18.8,11.9,38.6,21.7,55.6,29.8c6.7,3.2,13.4,4.8,20,4.8
			c7.4,0,14.6-2,21.5-6c1.9-1.1,4.1-1.8,6.8-2.5c1.4-0.4,2.9-0.8,4.6-1.4l0.6-0.2l0,0.6c0.8,12.4-2.4,22.5-10.1,31.9
			c-49.6,60.8-109.2,91.6-177.2,91.6c-14,0-28.5-1.3-43.2-3.9c-58.9-10.5-106.1-48.3-140.5-112.4c-0.6-1.1-0.5-2.6-0.4-4.6
			c0.1-1.1,0.2-2.4,0.2-3.9h0v-0.8l0.7,0.4C228.2,423.7,238,426.4,248.3,426.4L248.3,426.4z"/>
	</g>
	<path class="st1" d="M133.5,16c8,0,16.3,0.5,24.7,1.5c17.3,2,26.8,5.3,32.9,11.3c6.1,6,9.3,15.5,11.4,32.6c0.4,3,0.4,6.1,0.5,8.6
		c0,1.1,0.1,2,0.1,2.8l0,0.4l0.4,0.3l52.8,42.6l0.5,0.4l0.6-0.4c49.5-31,98.9-46.7,147.1-46.7c23.8,0,47.8,3.9,71.3,11.5
		c23.9,7.7,47.9,19.6,71.4,35.2l0.6,0.4l0.6-0.4l50.2-39.7l0.3-0.2l0.1-0.4c0.4-2.4,0.8-4.9,1.3-7.5c1-5.7,2.1-11.7,2.6-17.7
		c1.4-16.3,10.5-25.5,28.6-29.1c12.8-2.5,25.6-3.8,38-3.8c34.6,0,68.2,10,99.7,29.6c8.3,5.2,12.3,13.2,12.4,25.4
		c0.1,10-1.2,20.8-4,32c-5.4,21.7-11.8,44.4-18.8,67.4c-13.2,42.7-12.5,86.3-10.4,119.6c1.5,24.9,6.8,50,11.6,71.2
		c5.1,22.4,6.4,42.8,3.8,62.5c-1,7.3-1.7,14.7-2.4,21.9c-0.9,8.5-1.7,17.3-3,25.9c-2.3,15.9-5.8,21.2-13.7,21.2
		c-3.7,0-8.5-1.1-15.5-3.7c-1.3-0.5-2.5-0.9-4.3-1.5c-1-0.3-2.1-0.8-3.5-1.3l-1-0.3l-0.3,1c-1.8,5.4-3.4,10.6-5,15.6
		c-3.8,11.8-7.4,22.9-11.2,33.9c-2.9,8.1-6.4,16.2-10.5,23.9l-0.4,0.8c-3.7,7.1-7.2,13.8-16.1,13.8c-0.5,0-1.1,0-1.7-0.1
		c-9.4-0.8-20.2-7.3-21.8-19.6c-1.6-12.5-0.7-25.5,0.5-38.8c0.4-4,0.8-8.1,1.2-12.1c1.7-16.8,3.4-34.1,2.2-52.5l-0.2-3l-1.6,2.5
		c-0.7,1.1-1.5,2.2-2.2,3.2c-1.7,2.3-3.4,4.8-4.6,7.4c-6.7,14.2-13.3,28.7-19.8,42.7c-9.5,20.5-19.2,41.6-29,62.3
		c-5.3,11.2-9.2,15-15.2,15c-2.2,0-4.9-0.5-8.5-1.6c-11.6-3.6-14.8-9.6-13.2-24.5c1-9.2,2-18.4,3.2-29c0.6-5.1,1.2-10.5,1.9-16.4
		l0.2-2.1l-1.8,1.1c-47.2,29.5-93.5,43.9-141.6,43.9c-10.4,0-21.1-0.7-31.8-2.1c-63.2-8.2-116.3-31.8-162.1-72.3l-1.9-1.7l0.2,2.5
		c0.3,3.1,0.5,5.6,0.7,7.9c0.3,4,0.6,7,1,9.9c1,6.8,2.1,13.7,3.2,20.3c2.1,13.1,4.3,26.7,5.9,40.1c1.4,12-2.5,17.2-15.2,20.9
		c-2.1,0.6-4.1,0.9-5.9,0.9c-7.3,0-11.2-5.1-14.8-12.8c-10-21.6-20.2-43.4-30.1-64.6c-5.4-11.5-10.8-23-16.1-34.5
		c-0.3-0.6-0.5-1.2-0.8-1.8c-2.7-5.9-5.5-11.9-10.3-17.6l-1.6-1.9l-0.2,2.5c-1.6,23.9,1.1,46.6,3.9,65.6c1.7,11.3,2.4,21.2,2.2,30.2
		c-0.1,4.9-2,10.7-5.1,15.9c-4.4,7.3-11.1,11.6-17.9,11.6c-6.8,0-12.8-4.1-16.4-11.4c-6.6-13.2-11.9-27.5-17-41.3
		c-1.6-4.4-3.3-8.9-5-13.3c-1.7-4.5-3-9.2-4.4-14.1c-0.6-2.3-1.3-4.7-2-7.1l-0.2-0.8l-0.9,0.1c-1,0.2-1.9,0.3-2.7,0.4
		c-1.6,0.2-3,0.4-4.3,0.8c-8.3,3-13.5,4.2-17.4,4.2c-7.9,0-11.1-5.3-13.3-21.9c-4.8-36.8-9.1-79.6,1-123.2
		C62,275.8,58.3,203.8,34.2,133.1c-0.4-1.2-0.8-2.5-1.3-3.7c-6.7-19.6-13.7-39.9-12.5-61.9c0.7-12.2,6.1-17.9,14.7-23.3
		C65.2,25.5,98.3,16,133.5,16 M63.7,481.7l1.4-2.4c9.9-16.5,10.3-17.8,10.5-34.4c0.1-5.9,0.1-11.8,0.2-17.7
		c0.1-16.4,0.3-33.4,0.7-50.1c0.1-4.8,0.8-9.5,1.6-15.6c0.3-2.5,0.7-5.3,1.1-8.4c11.1,14.7,12.3,28.2,11.9,40.6
		c-1.3,41.7,7.1,81,20.2,127.1c1.6,5.6,3,11.4,4.4,17c1.3,5.5,2.8,11.3,4.3,16.8c0.7,2.6,2,5.1,3.8,8.5c1,1.9,2.2,4.1,3.5,6.9l1,2.2
		l0.8-2.3c1.4-3.9,2.9-7.5,4.2-10.6c2.7-6.3,5-11.8,5.1-17.3c0.2-9.2-1.1-18.5-2.3-27.5c-0.6-4.5-1.2-9.2-1.7-13.9
		c-0.6-6.5-1.3-13-2-19.4c-1.9-18.6-3.9-37.8-4.6-56.7l-0.1-1.5c-0.4-12.1-0.8-23.6-5.9-35c-0.2-0.5-0.4-0.9-0.6-1.4
		c-2.7-6.1-5.6-12.3-1.1-21.6c13.2,16.6,21.2,34.5,29,51.8c2.2,5,4.5,10.1,6.9,15.1c7.3,15.2,15.1,30.5,22.6,45.2
		c3.9,7.6,7.9,15.4,11.8,23.2c4.2,8.4,7.2,17.1,10.4,26.5c5.1,14.9,10.3,30.3,21,44.7l1.2,1.6l0.6-1.9c5.3-17.4,1.8-30.7-2.2-42.7
		c-13.6-40.5-21.6-78.1-24.6-115c-0.8-10.6-5.4-18.6-14-24.4c-4.4-3-8.9-6.1-13.2-9.1c-8.6-6-17.6-12.2-26.6-18
		c-10.3-6.6-15.2-14-16-24.2c2-1,3.8-1.5,5.6-1.5c4,0,6.9,2.8,9.7,5.6c0.9,0.8,1.7,1.7,2.6,2.5c28.6,24.5,61.3,46.4,99.9,67l0.1,0.1
		c6,3.2,12.1,6.5,18.6,6.5c3.9,0,7.5-1.1,11-3.5c5.4-3.7,10.9-7.3,16.2-10.9c17.3-11.6,35.2-23.5,51.9-36.6c14-11,24.2-27.3,32-51.2
		l0.2-0.6l-0.5-0.4c-3.6-3.1-6.9-4.7-10.1-4.7c-3.7,0-7.1,2.1-10.5,6.4c-11.2,14.1-26.1,24.5-46.8,32.3l15.7-14l28.8-25.5l1-0.9
		l-1.2-0.7c-5.1-2.9-10-5.7-14.6-8.3c-9.7-5.5-18.8-10.7-27.6-16c-14.8-9-30.4-18.8-47.9-30.2c-7-4.5-13.4-6.7-19.8-6.7
		c-4.3,0-8.6,1-12.8,3.1l2.6-4.8l1.6-3l0.5-1l-1.1-0.4c-3.4-1.3-6.6-2.5-9.7-3.6c-6.9-2.5-13.4-4.9-19.7-7.6c-2.3-1-4.8-1.6-7.4-2.3
		c-6.7-1.7-13.6-3.5-19.9-11.8c4.8,0.7,9.3,1.2,13.6,1.7c9.8,1.2,18.3,2.2,26.4,4.5c34.7,10.3,67,25.8,95.9,46
		c14.4,10.1,30.2,18.5,45.5,26.8l3.6,1.9c5.8,3.1,13.1,5.3,21.1,6.4c0.3,0,0.7,0.1,1,0.1c3.7,0,9.1-2.3,10.5-5.4
		c1.3-2.7,0.7-7-1.8-12.8c-0.8-1.8-2.6-2.9-4.3-4c-0.9-0.6-1.9-1.2-2.6-1.8c-36.9-32.9-79.1-71.8-113.3-117.9
		c-9.3-12.5-20.5-25.2-33.3-37.7c-28.8-28.1-65.3-41.8-93.8-50.6c-5.7-1.8-11.4-4.2-17.3-6.8c-2.5-1.1-5.1-2.2-7.8-3.4
		c4.6-4.4,9.5-6.4,15.2-6.4c3.6,0,7.2,0.8,10.7,1.6c1.7,0.4,3.5,0.8,5.2,1c7.2,1.2,14.1,3,21.4,5c3.1,0.8,6.4,1.7,9.6,2.5l1.1,0.3
		l0.1-1.2c1.6-21.9,0-27.9-15.5-31.7c-12.3-3-25-4.5-37.7-4.5c-28.7,0-59.2,7.6-96,23.8l-0.8,0.3l0.2,0.8c1.3,6.1,2.5,12,3.7,17.7
		c2.5,12.3,4.8,23.9,7.8,35.3c3.5,13.3,7.3,26.8,11.1,39.8c4.8,16.6,9.7,33.8,13.9,50.9c3.5,13.9,6.5,28.7,5.3,42.9
		C71.7,274.5,68.1,311,61,346.4c-6.5,32.4-7.9,61.6-4.4,89.4c1.2,9,2.6,17.8,4.2,28c0.8,4.9,1.6,9.9,2.4,15.2L63.7,481.7
		 M621.4,67.6l1-0.2c25.2-5.2,37.9-7.8,45.6-7.8c6.7,0,9.5,1.9,14.6,6c-3.4,1.3-6.8,2.5-10.1,3.8c-8.1,3.1-15.7,5.9-23.5,8.4
		c-44.5,13.8-78.2,36-103.1,67.8c-43,55-85.2,99.5-129.1,136.1c-7.9,6.6-9.4,13.7-4.8,23.7l0.3,0.7l0.8-0.1c1.9-0.4,3.8-0.6,5.6-0.8
		c4.1-0.5,8-0.9,11.4-2.7c4.3-2.2,8.7-4.4,13-6.5c16.3-8.1,33.1-16.5,48.3-26.8c29.9-20.2,62-35.4,98.1-46.6
		c5.8-1.8,12.6-3.7,19.5-3.7c5.5,0,10.6,1.2,15.5,3.8l-37.5,13.8l-17.2,6.3l-1,0.4l0.4,1l1.8,4.2l1,2.4c-3.6-1.5-7.3-2.3-10.9-2.3
		c-5.5,0-10.8,1.7-16.5,5.1c-22.1,13.6-44.8,27.4-66.7,40.8c-8.6,5.2-17.3,10.5-25.9,15.8l-1.1,0.7l1,0.9c3.8,3.5,7.4,7.2,11,10.8
		c12.8,13,24.8,25.2,43.1,30.2c5.7,1.5,10.6,2.3,15,2.3c10.2,0,18.5-4.1,25.4-12.4c5.2-6.3,10.9-11.9,17-16.5
		c8.9-6.7,13.1-14.9,13.6-26.8c0.4-10.1,1.7-20.3,2.8-30.2c0.5-3.9,0.9-7.9,1.4-11.8c8,2.9,11.4,7.8,11.4,16
		c-0.2,28.9-2.4,54.1-28.7,69.9c-3.2,1.9-5.6,4.9-8,7.8l-0.1,0.1c-5.8,7.1-12.9,10.6-21.7,10.6c-4,0-8.4-0.7-13.1-2.2l-1.2-0.4
		c-26.2-8.2-53.4-16.7-71.3-40.3c-3.4-4.5-6.9-6.6-10.6-6.6c-3.1,0-6.4,1.5-10,4.5l-0.5,0.4l0.2,0.6c8.2,25.5,19.8,43.2,36.5,55.9
		c8.2,6.2,16.9,12,25.3,17.6c8.9,5.9,18.1,12,26.7,18.7c7.5,5.8,14.8,8.6,22.5,8.6c7.3,0,15-2.5,24.7-8c38.9-22,69.2-42.9,95.6-65.6
		c0.7-0.6,1.3-1.2,2-1.8c2.5-2.4,5.1-4.8,8.4-4.8c1.8,0,3.7,0.7,5.7,2c-0.6,9.8-5.7,17.5-16.1,23.9c-5.5,3.4-10.9,7.1-16.1,10.8
		c-6,4.1-12.2,8.4-18.5,12.2c-13.4,8.1-20.2,20.3-20.7,37.1c-1,34.1-10.8,67.3-19.8,95.8l-0.5,1.6c-2.7,8.5-5.5,17.2-6.9,26
		c-0.1,0.6-0.2,1.3-0.3,1.9c-1.2,6.8-2.5,14.6,5.1,23.2l1,1.2l0.6-1.4c1.7-3.7,3.3-7.1,4.9-10.4c3.2-6.6,6.1-12.8,8.3-19.1
		c12.2-34.9,29.2-68.3,45.6-100.6c9.9-19.4,20.1-39.5,29.2-59.7c1.7-3.7,4.5-7.1,8.1-11.3c1.5-1.8,3.2-3.8,5.1-6.1
		c0.1,2.5,0.2,4.8,0.4,6.6c0.3,4.1,0.5,6.8-0.5,8.6c-9.8,17.3-9.4,36-9,54c0.1,2.7,0.1,5.5,0.2,8.3c0.1,7-0.9,14.3-1.8,21.2l0,0.4
		c-1.1,8.7-2.4,17.5-3.6,26.1c-2,14.2-4,28.8-5.7,43.3c-1.3,11.2-0.9,24.2,11.8,35.2l1.1,1l0.5-1.4c0.9-2.4,1.7-4.6,2.5-6.6
		c1.6-4.1,3-7.7,3.9-11.4c1.9-7.1,3.6-14.4,5.3-21.4c3-12.5,6.1-25.4,10-37.8c7-22.4,10.6-46.4,11-73.5c0.2-14.2,2.6-28.6,4.9-42.5
		c0.5-3.1,1-6.2,1.5-9.3c0.3-1.6,1.9-3.2,4.3-5.7c1.1-1.1,2.3-2.3,3.7-3.8c0.2,7,0.4,13.7,0.6,20.1c0.5,15.7,0.8,29.2,2,43
		c0.4,5.4,0.2,11,0,16.4c-0.5,14.3-1,29.2,9.7,42.4l1.4,1.7l0.4-2.2c0.8-4.4,1.6-8.8,2.4-13.1c4.8-25.9,9.7-52.8,6.4-79.8
		c-2.3-18.6-5.1-37.5-7.8-55.8c-3.2-21.4-6.4-43.5-8.9-65.3c-1.6-13.9-3.2-34.7,0.7-53.7c4.9-24.1,11.9-48.3,18.6-71.7
		c2.4-8.3,4.8-16.9,7.2-25.4c0.4-1.5,0.8-3,1.3-4.5c4.8-17.1,9.7-34.8,8.7-54.3l0-0.6l-0.5-0.2c-33.3-15.1-64.1-22.5-94-22.5
		c-10.2,0-20.4,0.9-30.4,2.6c-10.8,1.8-16.8,4.6-19.9,9.1c-3.8,5.5-3.2,13.4-1.3,23.7L621.4,67.6 M403.6,281.6l0.7-0.7
		c8.7-9,17.5-18,26-26.8c40.9-42,79.5-81.6,112.1-129.5l0.5-0.8l-0.8-0.6c-32.8-24.7-79.2-38.8-127.2-38.8
		c-57.9,0-109.5,20.2-141.6,55.3l-0.6,0.6l0.5,0.7c37.5,48,79.9,93.8,129.6,139.9L403.6,281.6 M248.2,425.9
		c-10.1,0-19.9-2.7-29.9-8.2l-1.5-0.8v1.7c0,1.5-0.1,2.7-0.2,3.8c-0.2,2.1-0.3,3.6,0.4,4.8C251.6,491.4,299,529.3,358,539.8
		c14.7,2.6,29.3,4,43.3,4c68.2,0,127.9-30.9,177.6-91.8c7.8-9.5,11-19.8,10.2-32.3l-0.1-1.3l-1.2,0.4c-1.7,0.6-3.2,1-4.6,1.4
		c-2.7,0.8-5,1.4-7,2.6c-6.8,3.9-13.9,5.9-21.2,5.9c-6.5,0-13.2-1.6-19.8-4.8c-16.9-8-36.7-17.9-55.5-29.7
		c-24-15.1-52.7-37.3-61.9-75c-2.2-9-8.3-14-18-14.8c-0.5,0-0.9-0.1-1.4-0.1c-7.1,0-11.7,4.7-14.1,14.3
		c-6.1,24.3-20.8,44.5-44.9,61.8c-12.5,9-23.1,16.4-34.3,23.2C288.2,414.1,269.1,425.9,248.2,425.9 M133.5,15
		c-35,0-68,9.1-98.8,28.4c-9.4,5.8-14.5,12.1-15.2,24.1C18.2,91,26,112.2,33.3,133.5c23.9,70.2,27.8,141.9,11.1,213.4
		c-9.8,42-6.5,82.5-1.1,123.6c2.1,16.2,5.4,22.7,14.3,22.7c4.4,0,10.1-1.6,17.8-4.3c1.8-0.7,3.9-0.7,6.8-1.2
		c2.2,7.5,3.9,14.5,6.4,21.2c7,18.4,13.2,37.2,22,54.7c4,8,10.6,11.9,17.3,11.9c6.9,0,14-4.1,18.8-12.1c2.9-4.8,5.1-10.9,5.2-16.4
		c0.2-10.1-0.7-20.3-2.2-30.3c-3.2-21.7-5.4-43.3-3.9-65.4c5.2,6.1,8,12.7,11,19.1c15.4,33,31,65.9,46.3,99
		c3.6,7.8,7.8,13.4,15.7,13.4c1.8,0,3.9-0.3,6.1-1c12.4-3.6,17.5-8.8,16-22c-2.3-20.2-6-40.3-9.1-60.5c-0.7-4.5-0.9-9-1.7-17.7
		c48.8,43.1,102.8,64.8,162.6,72.5c10.8,1.4,21.4,2.1,31.9,2.1c49.5,0,96.2-15.3,142.1-44.1c-2.1,18.2-3.6,31.8-5.1,45.4
		c-1.7,15.5,1.8,21.8,13.9,25.5c3.4,1.1,6.3,1.7,8.8,1.7c6.6,0,10.7-4.3,16.1-15.6c16.5-34.9,32.5-70.1,48.9-105
		c1.8-3.8,4.5-7,6.8-10.5c1.5,22.6-1.5,43.4-3.4,64.4c-1.2,12.9-2.2,26.2-0.5,39c1.6,12,12,19.5,22.7,20.4c0.6,0.1,1.2,0.1,1.8,0.1
		c9.8,0,13.6-7.8,17.4-15c4.1-7.7,7.6-15.8,10.5-24c5.5-15.8,10.5-31.7,16.3-49.6c3.9,1.4,5.9,2.1,7.8,2.8
		c6.7,2.4,11.8,3.8,15.8,3.8c8.9,0,12.4-6.5,14.7-22.1c2.3-15.9,3.3-31.9,5.4-47.8c2.8-21.3,1-41.9-3.8-62.9
		c-5.4-23.4-10.1-47.2-11.6-71c-2.5-40.1-1.7-80.2,10.3-119.3c6.9-22.3,13.2-44.8,18.8-67.4c2.6-10.5,4.2-21.5,4-32.3
		c-0.2-10.1-2.8-19.9-12.9-26.2c-31.6-19.7-65-29.8-100.2-29.8c-12.5,0-25.2,1.3-38.2,3.8c-16.7,3.3-27.9,11.6-29.4,30
		c-0.7,8.6-2.7,17.1-4,25.1c-16.7,13.2-33.1,26.2-50.2,39.7c-47.8-31.7-95.6-46.8-143.3-46.8c-49.4,0-98.6,16.2-147.6,46.8
		C238.9,101,222,87.3,204,72.8c-0.1-2.9-0.1-7.2-0.6-11.5c-3.9-32.7-12.2-41-45.1-44.8C149.9,15.5,141.7,15,133.5,15L133.5,15z
		 M64.3,478.8c-2.5-16.5-4.9-29.8-6.6-43.2c-3.8-29.9-1.6-59.2,4.3-89C69,311.7,72.6,276,75.5,240.5c1.2-14.2-1.9-29.2-5.3-43.2
		c-7.6-30.4-17-60.3-25-90.7c-4.4-16.8-7.4-33.9-11.5-53C65.7,39.6,96.9,30,129.3,30c12.3,0,24.8,1.4,37.4,4.4
		c14.5,3.5,16.4,8.6,14.8,30.6c-10.6-2.6-20.7-5.9-31.1-7.6c-5.1-0.8-10.5-2.6-16-2.6c-5.5,0-11.2,1.7-17,7.8
		c9.8,4,18,8.2,26.6,10.8c34.5,10.7,67.2,24.8,93.4,50.4c11.9,11.6,23.3,24.2,33.2,37.6c32.8,44.3,72.5,81.7,113.4,118.1
		c2.2,1.9,5.6,3.1,6.6,5.5c1.6,3.7,3.3,8.9,1.9,11.9c-1.2,2.5-6.2,4.8-9.6,4.8c-0.3,0-0.6,0-0.9-0.1c-7.1-1-14.5-3-20.8-6.3
		c-16.7-9-33.5-17.8-49-28.6c-29.6-20.7-61.8-36-96.2-46.2c-12.2-3.6-25.3-4.1-42.5-6.6c9.4,14,20.6,12.7,29.1,16.4
		c9.2,4,18.7,7.2,29.4,11.2c-2.5,4.8-4.1,7.8-5.7,10.8c5.2-3.2,10.3-4.6,15.3-4.6c6.5,0,12.9,2.4,19.3,6.6
		c15.8,10.3,31.8,20.4,47.9,30.2c13,7.9,26.3,15.2,42.3,24.4c-16.6,14.7-32.5,28.9-48.4,43c20.3-7,38.6-17.2,52.2-34.4
		c3-3.8,6.2-6,9.8-6c2.8,0,5.9,1.4,9.4,4.4c-6.3,19.5-15.4,38-31.6,50.8c-21.7,17-45.2,31.9-68,47.4c-3.6,2.4-7,3.4-10.4,3.4
		c-6.3,0-12.3-3.2-18.3-6.4c-35.5-19-69.1-40.7-99.7-66.9c-3.8-3.3-7.3-8.3-13-8.3c-1.9,0-4.1,0.6-6.6,1.9
		c0.6,11.6,6.7,19.4,16.5,25.6c13.5,8.6,26.5,18,39.8,27c8.4,5.7,12.8,13.4,13.6,23.7c3.1,39.5,12,77.7,24.6,115.2
		c4.1,12,7.4,24.9,2.2,42.1c-17.2-23.2-20.2-49-31.3-71c-11.5-22.8-23.4-45.3-34.4-68.4c-10.8-22.6-19.3-46.5-37-68.3
		c-6.1,11.2-2,18.5,0.9,25.2c5.2,11.7,5.4,23.6,5.8,36.1c0.9,25.4,4.1,50.8,6.5,76.1c1.3,13.8,4.2,27.5,4,41.2
		c-0.1,8-5.1,15.8-9.3,27.5c-3.7-7.7-6.1-11.3-7.2-15.2c-3.2-11.2-5.5-22.7-8.7-33.9c-11.7-41.5-21.5-83.1-20.2-126.8
		c0.4-13.2-0.9-27.4-13.6-43.2c-1.4,11.8-2.8,19.1-3,26.5c-0.6,22.6-0.6,45.2-0.9,67.8C74.5,461.2,74.2,462.3,64.3,478.8L64.3,478.8
		z M622.1,66.4c-4.1-21.3-0.6-28,20.4-31.6c10.2-1.7,20.3-2.6,30.2-2.6c32.1,0,63,8.6,93.5,22.4c1.1,21-4.7,39.7-9.9,58.5
		c-8.9,32.3-19.1,64.4-25.8,97.1c-3.5,17.4-2.7,36.2-0.7,54c4.6,40.5,11.7,80.6,16.6,121.1c3.8,31.3-3.4,61.9-8.8,92.6
		c-14.5-18-7.9-38.8-9.5-58.2c-1.6-20.2-1.7-40.5-2.7-65.6c-5.4,6.4-9.4,8.9-9.9,11.9c-2.7,17.2-6.2,34.6-6.4,51.9
		c-0.3,25-3.4,49.2-10.9,73.2c-6.1,19.5-10.1,39.6-15.3,59.3c-1.4,5.5-3.8,10.7-6.4,17.9c-11.9-10.3-12.8-22.2-11.5-34.3
		c2.7-23.2,6.2-46.2,9.3-69.4c0.9-7.2,1.9-14.5,1.8-21.8c-0.2-21.1-2.5-42.2,8.7-61.9c1.8-3.2,0.3-8.4,0.3-18.5
		c-7.1,9.2-12.4,14-15,19.9C646.1,436.4,615,486.9,595.5,543c-3.3,9.4-8.1,18.3-13.2,29.4c-8-9-5.7-17.1-4.5-24.3
		c1.5-9.3,4.5-18.4,7.3-27.4c10-31.3,18.9-62.9,19.9-96.1c0.5-15.8,6.3-27.9,20.2-36.3c11.8-7.2,22.9-15.6,34.6-23
		c9.8-6.1,16.1-13.8,16.6-25.3c-2.6-1.8-4.8-2.5-6.8-2.5c-4.6,0-7.8,4-11,6.9c-29.4,25.3-61.7,46.3-95.4,65.4
		c-8.6,4.9-16.4,7.9-24.2,7.9c-7.1,0-14.2-2.5-21.8-8.4c-16.7-12.9-35.2-23.5-52-36.2c-18.5-14.1-29.1-33.7-36.1-55.4
		c3.5-3,6.5-4.3,9.3-4.3c3.7,0,6.8,2.3,9.8,6.2c18.4,24.2,45.9,32.5,73,41c4.6,1.4,9,2.2,13.4,2.2c8.3,0,16-3.1,22.5-10.9
		c2.3-2.8,4.8-5.8,7.8-7.6c27.3-16.4,29-43.1,29.2-70.8c0-9.8-4.8-14.7-13.3-17.4c-1.5,14.5-3.7,28.9-4.3,43.4
		c-0.5,11.1-4.3,19.3-13.2,26c-6.3,4.8-12.2,10.5-17.2,16.6c-7.2,8.8-15.5,12-24.6,12c-4.7,0-9.6-0.9-14.8-2.3
		c-23.3-6.3-36.8-25-53.7-40.8c31.2-19,62-37.7,92.6-56.6c5.3-3.3,10.6-5,16-5c4.2,0,8.5,1.1,12.9,3.4c-1.1-2.5-2.2-5.1-4-9
		c19.5-7.2,38.1-14,56.8-20.9c-6.2-3.6-12.1-4.9-18-4.9c-6.7,0-13.3,1.8-19.8,3.8c-35,10.8-67.8,26-98.4,46.7
		c-19.2,12.9-40.5,22.7-61.2,33.3c-4.8,2.4-10.8,2.2-16.7,3.4c-4.6-10.1-2.7-16.5,4.5-22.5c48.4-40.3,90.5-86.6,129.2-136.2
		c26.5-33.9,61.9-54.8,102.6-67.5c11.5-3.6,22.8-8.2,35.3-12.8c-6-4.9-9-7.4-16.6-7.4C660.2,58.6,647.6,61.2,622.1,66.4L622.1,66.4z
		 M403.5,280.2c-47.9-44.5-90.8-90.2-129.5-139.8c34.2-37.5,87.6-55,140.9-55c46.6,0,93.1,13.4,126.6,38.7
		C502,182.1,452.6,229.1,403.5,280.2L403.5,280.2z M248.2,426.9c20.5,0,39-11,57.3-22.2c11.8-7.2,23.1-15.2,34.4-23.3
		c21.9-15.7,38.5-35.6,45.3-62.3c1.9-7.5,5.5-13.5,13.2-13.5c0.4,0,0.8,0,1.3,0c8.1,0.7,14.8,4.5,17.2,14.1
		c8.6,35.1,33.5,57.4,62.4,75.6c17.8,11.2,36.6,20.7,55.6,29.8c6.6,3.2,13.4,4.9,20.3,4.9c7.3,0,14.6-1.9,21.7-6.1
		c2.9-1.7,6.4-2.2,11.4-3.9c0.8,13.2-2.9,22.9-10,31.6c-47.7,58.4-106.5,91.4-176.9,91.4c-13.9,0-28.3-1.3-43.1-3.9
		c-65-11.6-109.4-54.8-140.1-112.2c-0.9-1.6-0.1-4-0.1-8.2C228.6,424.4,238.6,426.9,248.2,426.9L248.2,426.9z"/>
</g>
<g>
	<g>
		<path class="st0" d="M267.3,360.4c-7.7,0-13.9-5.1-25.2-15.8c-0.6-0.6-1.2-1.2-1.8-1.8c-1.5-1.5-3-3.1-4.8-4.2
			c-24.4-14.7-24.7-38.5-25-61.6l0-0.3c0-2.8-0.1-5.8-0.2-8.6c-0.3-8.7,6.1-11.2,12.9-13.9c0.8-0.3,1.7-0.7,2.5-1
			c-0.2,3.4-0.5,6.9-0.8,9.9c-2.1,23.5-4.3,47.9,19.8,65.7c3.3,2.5,6.4,5.6,9,9c8.3,10.9,18.7,16.4,31.1,16.4c0.7,0,1.4,0,2.1,0
			C278.3,358.2,272.4,360.4,267.3,360.4z"/>
		<path class="st0" d="M225.1,253.9c-0.2,3.2-0.5,6.3-0.8,9.1c-2.1,23.7-4.4,48.2,20,66.2c3.3,2.4,6.4,5.5,8.9,8.9
			c8.3,11,18.8,16.5,31.3,16.6c-7.4,3.4-12.7,5.3-17.3,5.3c-7.5,0-13.6-5-24.9-15.7c-0.6-0.6-1.2-1.2-1.8-1.8
			c-1.5-1.5-3-3.1-4.9-4.2c-24.2-14.5-24.5-38.3-24.8-61.2l0-0.3c0-2.8-0.1-5.8-0.2-8.6c-0.2-8.3,5.7-10.6,12.6-13.4
			C224,254.4,224.6,254.1,225.1,253.9 M226.3,252.4c-1.1,0.5-2.2,0.9-3.2,1.3c-6.9,2.7-13.5,5.3-13.2,14.3c0.1,3,0.1,6,0.2,8.9
			c0.3,23.2,0.6,47.3,25.3,62.1c1.8,1.1,3.2,2.6,4.7,4.1c0.6,0.6,1.2,1.2,1.8,1.8c11.5,10.9,17.7,16,25.6,16
			c5.5,0,11.8-2.4,22.2-7.5c-1.6,0.2-3.2,0.2-4.7,0.2c-12.2,0-22.5-5.5-30.7-16.2c-2.6-3.5-5.8-6.6-9.1-9.1
			c-23.9-17.7-21.7-41.9-19.6-65.3C225.7,259.6,226,255.9,226.3,252.4L226.3,252.4z"/>
	</g>
	<path class="st1" d="M225.7,253.1c-0.2,3.3-0.5,6.6-0.8,9.9c-2.1,23.5-4.3,47.9,19.8,65.7c3.3,2.5,6.4,5.5,9,9
		c8.3,10.9,18.7,16.4,31.1,16.4c0.7,0,1.4,0,2.1,0c-9,4.3-14.6,6.3-19.6,6.3c-7.7,0-13.9-5.1-25.2-15.8c-0.6-0.6-1.2-1.2-1.8-1.8
		c-1.4-1.5-2.9-3.1-4.8-4.1c-11.1-6.7-17.9-15.4-21.5-27.4c-3.2-10.7-3.3-22.7-3.5-34.3c0-2.9-0.1-6-0.2-8.9
		c-0.2-8.6,6.1-11.2,12.9-13.9C224,253.8,224.9,253.5,225.7,253.1 M226.8,251.6c-7.7,3.5-17.8,5.3-17.5,16.5
		c0.8,26.5-2.4,54.6,25.7,71.4c2.4,1.5,4.3,3.9,6.4,5.8c11.7,11.1,18,16.1,25.9,16.1c6.2,0,13.5-3.1,25.2-9
		c-2.6,0.4-5.2,0.7-7.7,0.7c-12.2,0-22.3-5.4-30.3-16c-2.6-3.4-5.8-6.6-9.2-9.2C217.7,307.6,225.1,278.9,226.8,251.6L226.8,251.6z"
		/>
</g>
</svg>
