<?xml version="1.0" encoding="utf-8"?>
<!-- Generator: Adobe Illustrator 25.0.1, SVG Export Plug-In . SVG Version: 6.00 Build 0)  -->
<svg version="1.1" id="Calque_1" xmlns="http://www.w3.org/2000/svg" xmlns:xlink="http://www.w3.org/1999/xlink" x="0px" y="0px"
	 viewBox="0 0 800 800" style="enable-background:new 0 0 800 800;" xml:space="preserve">
<style type="text/css">
	.st0{fill:#FFFFFF;}
</style>
<path d="M720.33,521.44c-5.82,17.84-10.74,33.81-16.29,49.56c-2.9,8.23-6.45,16.31-10.52,24.03c-4.03,7.64-8.02,15.97-19.21,14.96
	c-10.7-0.97-21.18-8.4-22.74-20.43c-1.66-12.78-0.66-26.06,0.5-39.01c1.89-20.96,4.86-41.82,3.41-64.38
	c-2.29,3.5-5.05,6.79-6.81,10.55c-16.35,34.98-32.34,70.14-48.86,105.04c-7.38,15.58-12.3,17.86-24.84,13.95
	c-12.1-3.78-15.57-10.09-13.89-25.55c1.48-13.61,3.06-27.22,5.12-45.42c-55.67,34.85-112.45,49.94-174.01,41.98
	c-59.8-7.74-113.86-29.47-162.65-72.53c0.79,8.67,0.99,13.22,1.66,17.69c3.01,20.16,6.73,40.23,9.06,60.46
	c1.52,13.21-3.56,18.41-15.96,21.97c-12.03,3.46-17.35-2.87-21.78-12.47c-15.28-33.07-30.86-66-46.27-99
	c-3.02-6.46-5.83-13.01-10.98-19.15c-1.45,22.09,0.7,43.73,3.91,65.39c1.49,10.02,2.43,20.24,2.18,30.33
	c-0.14,5.54-2.31,11.58-5.21,16.41c-9.45,15.8-28.01,16.39-36.12,0.19c-8.77-17.5-14.97-36.3-21.97-54.66
	c-2.56-6.7-4.2-13.76-6.43-21.25c-2.95,0.48-5,0.51-6.83,1.17c-23.26,8.33-28.89,5.79-32.08-18.42
	c-5.41-41.14-8.76-81.56,1.07-123.61c16.7-71.4,12.76-143.19-11.13-213.35c-7.24-21.27-15.07-42.45-13.79-65.94
	c0.65-11.98,5.81-18.25,15.16-24.1c38.08-23.83,79.35-32.13,123.63-26.97c32.91,3.84,41.25,12.14,45.1,44.82
	c0.5,4.27,0.47,8.6,0.62,11.49c18.03,14.55,34.95,28.2,52.82,42.63c96.28-60.29,193.68-64.57,290.88,0.01
	c17.1-13.52,33.57-26.55,50.22-39.72c1.29-7.97,3.22-16.47,3.95-25.07c1.55-18.37,12.77-26.71,29.43-29.97
	c49.59-9.71,95.59-0.76,138.42,25.98c10.13,6.32,12.76,16.13,12.91,26.21c0.16,10.75-1.43,21.79-4.04,32.26
	c-5.64,22.63-11.97,45.12-18.84,67.41c-12.04,39.07-12.83,79.21-10.33,119.28c1.49,23.85,6.24,47.68,11.6,71.04
	c4.81,20.97,6.59,41.62,3.76,62.88c-2.12,15.9-3.11,31.96-5.44,47.83c-3.34,22.73-9.3,26.04-30.53,18.28
	C726.19,523.52,724.2,522.82,720.33,521.44z M573.66,285.2c-9.94-5.16-19.39-4.16-28.85,1.65c-30.67,18.87-61.45,37.55-92.65,56.58
	c16.94,15.78,30.4,34.46,53.69,40.79c15.29,4.16,28.5,3.46,39.41-9.8c5.04-6.13,10.89-11.85,17.22-16.62
	c8.9-6.7,12.72-14.9,13.19-26c0.62-14.49,2.81-28.9,4.32-43.35c8.43,2.74,13.31,7.57,13.26,17.4c-0.14,27.66-1.82,54.36-29.16,70.79
	c-3.04,1.82-5.49,4.83-7.79,7.64c-9.8,11.93-22.48,12.84-35.81,8.67c-27.18-8.49-54.64-16.79-73.05-41.01
	c-5.26-6.92-11.11-8.77-19.16-1.93c7,21.71,17.65,41.37,36.13,55.43c16.79,12.78,35.29,23.32,51.97,36.23
	c15.9,12.32,29.64,9.85,46.09,0.52c33.75-19.14,66.01-40.12,95.43-65.45c4.62-3.98,9.03-10.47,17.8-4.32
	c-0.5,11.52-6.82,19.19-16.58,25.3c-11.73,7.34-22.76,15.82-34.59,22.98c-13.88,8.4-19.75,20.54-20.21,36.3
	c-0.96,33.17-9.88,64.74-19.87,96.08c-2.88,9.02-5.88,18.13-7.34,27.44c-1.12,7.13-3.45,15.28,4.54,24.27
	c5.05-11.15,9.91-20,13.18-29.41c19.51-56.03,50.65-106.61,74.81-160.45c2.67-5.94,7.97-10.7,15.05-19.9
	c0,10.15,1.57,15.3-0.26,18.52c-11.16,19.61-8.9,40.78-8.67,61.85c0.08,7.26-0.9,14.56-1.84,21.79
	c-3.02,23.13-6.62,46.19-9.26,69.36c-1.38,12.04-0.46,23.99,11.45,34.28c2.6-7.22,4.95-12.45,6.38-17.93
	c5.18-19.75,9.16-39.86,15.26-59.32c7.52-23.95,10.59-48.14,10.92-73.18c0.23-17.34,3.67-34.69,6.38-51.92
	c0.48-3.07,4.47-5.58,9.91-11.93c0.94,25.08,1.02,45.42,2.66,65.62c1.58,19.46-5.02,40.28,9.51,58.24
	c5.4-30.75,12.63-61.29,8.8-92.62c-4.95-40.43-12.07-80.6-16.64-121.07c-2.02-17.82-2.87-36.66,0.68-54.03
	c6.7-32.77,16.87-64.85,25.8-97.15c5.21-18.83,11.04-37.52,9.91-58.5c-39.97-18.14-80.65-27.19-123.79-19.83
	c-20.96,3.58-24.49,10.27-20.38,31.62c50.32-10.35,50.32-10.35,62.42-0.44c-12.52,4.56-23.74,9.16-35.28,12.75
	c-40.72,12.65-76.09,33.56-102.58,67.47c-38.73,49.58-80.81,95.9-129.22,136.22c-7.17,5.97-9.13,12.39-4.49,22.52
	c5.92-1.11,11.99-0.93,16.74-3.35c20.7-10.56,42.06-20.32,61.23-33.27c30.59-20.65,63.36-35.9,98.39-46.7
	c12.1-3.73,24.49-6.64,37.75,1.19c-18.66,6.87-37.32,13.74-56.79,20.91C571.41,280.1,572.53,282.65,573.66,285.2z M225.68,284.63
	c1.59-3,3.17-6,5.69-10.77c-10.72-4.05-20.24-7.26-29.44-11.22c-8.57-3.7-19.78-2.38-29.13-16.38c17.16,2.57,30.28,3.02,42.46,6.63
	c34.42,10.23,66.55,25.44,96.18,46.18c15.45,10.82,32.34,19.68,49.01,28.63c6.29,3.38,13.67,5.36,20.78,6.33
	c3.41,0.47,9.18-1.97,10.53-4.73c1.48-3.02-0.25-8.23-1.86-11.93c-1.01-2.34-4.47-3.54-6.63-5.47
	c-40.86-36.41-80.62-73.83-113.41-118.08c-9.92-13.39-21.25-25.93-33.19-37.58c-26.24-25.58-58.91-39.73-93.42-50.38
	c-8.6-2.65-16.74-6.77-26.57-10.82c11.79-12.16,22.83-6.81,33.04-5.16c10.41,1.69,20.57,4.95,31.15,7.59
	c1.64-22.06-0.27-27.13-14.78-30.63C120,55.74,77.16,66.67,33.07,86.09c4.1,19.14,7.09,36.26,11.5,53.02
	c7.98,30.31,17.42,60.25,24.99,90.66c3.49,14.03,6.53,29.02,5.35,43.2c-2.96,35.5-6.57,71.17-13.51,106.06
	c-5.93,29.8-8.14,59.12-4.35,89.03c1.7,13.37,4.05,26.66,6.6,43.18c9.9-16.49,10.18-17.56,10.35-33.86
	c0.24-22.61,0.31-45.22,0.86-67.82c0.18-7.35,1.63-14.67,3.03-26.48c12.72,15.79,14.04,30.01,13.63,43.17
	c-1.36,43.69,8.43,85.32,20.17,126.78c3.18,11.22,5.55,22.67,8.72,33.9c1.11,3.92,3.49,7.48,7.22,15.22
	c4.15-11.71,9.13-19.58,9.27-27.53c0.25-13.72-2.67-27.47-3.99-41.24c-2.43-25.36-5.65-50.7-6.54-76.12
	c-0.44-12.53-0.65-24.46-5.83-36.14c-2.99-6.73-7.06-13.99-0.95-25.18c17.77,21.81,26.24,45.66,37.03,68.27
	c10.99,23.02,22.96,45.57,34.42,68.36c11.07,22.02,14.12,47.83,31.31,70.99c5.24-17.17,1.83-30.03-2.22-42.08
	c-12.6-37.52-21.49-75.73-24.63-115.2c-0.82-10.26-5.19-17.97-13.59-23.67c-13.26-9-26.26-18.4-39.77-27
	c-9.76-6.21-15.85-13.95-16.48-25.6c10.04-5.5,14.49,1.97,19.6,6.33c30.65,26.17,64.24,47.91,99.72,66.86
	c9.17,4.9,18.52,9.95,28.66,3.07c22.89-15.52,46.33-30.39,68.05-47.43c16.24-12.74,25.31-31.29,31.64-50.75
	c-7.91-6.9-13.79-5.25-19.2,1.59c-13.6,17.2-31.86,27.4-52.17,34.44c15.9-14.13,31.81-28.26,48.41-43
	c-16.01-9.19-29.33-16.48-42.29-24.35c-16.13-9.79-32.07-19.91-47.89-30.19C248.93,279.26,237.64,277.3,225.68,284.63z
	 M217.28,450.97c0,4.16-0.74,6.59,0.11,8.17c30.74,57.36,75.1,100.54,140.15,112.15c89.69,16,162.86-17.49,219.97-87.45
	c7.07-8.66,10.81-18.42,9.98-31.59c-4.95,1.66-8.48,2.23-11.36,3.91c-13.84,8.04-28.3,7.74-41.98,1.22
	c-18.97-9.03-37.86-18.58-55.61-29.78c-28.86-18.19-53.79-40.47-62.38-75.57c-2.34-9.58-9.05-13.39-17.16-14.07
	c-8.52-0.71-12.47,5.63-14.46,13.5c-6.77,26.76-23.34,46.58-45.26,62.33c-11.23,8.07-22.58,16.05-34.36,23.28
	C278,453.59,250.77,469.5,217.28,450.97z M540.84,156.47c-71.9-54.1-203.3-53.85-267.48,16.35c38.71,49.55,81.6,95.34,129.52,139.8
	C451.93,261.49,501.37,214.54,540.84,156.47z"/>
<path d="M120.15,705.25c-19.72,0-37,0-55.84,0c0,15.57,0,30.4,0,46.44c-12.89,0-24.89,0-36.73,0c0-38.76,0-76.92,0-116.34
	c11.74,0,23.05,0,35.78,0c0,12.96,0,25.8,0,40.07c19.17,0,36.98,0,56.29,0c0-13.24,0-25.96,0-40c12.32,0,23.61,0,36.16,0
	c0,38.33,0,76.6,0,116.16c-10.77,0-22.8,0-35.65,0C120.15,736.77,120.15,721.98,120.15,705.25z"/>
<path d="M633.28,635.2c11.6,0,22.85,0,34.34,0c0,22.11-0.39,43.11,0.12,64.09c0.44,18.23,9.09,26.08,27.46,26.44
	c18.35,0.36,28.55-7.68,29.16-24.88c0.75-21.1,0.18-42.24,0.18-65.06c10.56,0,22.29,0,34.25,0c0,20.86,0.51,41.17-0.11,61.45
	c-1.14,37.72-17.89,54.31-55.33,55.83c-2.19,0.09-4.37,0.12-6.56,0.17c-47.21,1.1-65.73-21.38-63.63-63.04
	C634.01,672.77,633.28,655.24,633.28,635.2z"/>
<path d="M538.79,754.52c-9.68-2.15-20-3.11-29.25-6.77c-19.22-7.6-30.05-21.93-30.43-43.38c-0.38-21.24,9.29-36.29,28.06-45.19
	c20.84-9.88,42.24-9.78,63.23-0.28c19.64,8.89,29.21,25.46,28.35,47.14c-0.85,21.5-12.46,35.2-31.85,42.3
	C558.19,751.52,548.65,752.43,538.79,754.52z M539.42,676.27c-17.31-0.18-30.9,11.41-31.1,26.53c-0.2,15.11,13.27,27.35,30.32,27.56
	c16.79,0.21,30.95-11.94,31.23-26.79C570.15,688.45,556.76,676.45,539.42,676.27z"/>
<path d="M461.95,654.02c-14.55,13.53-26.5,24.64-40.03,37.22c12.92,19.43,25.95,40.58,40.03,61.75c-15.95,0-23.9-0.23-36.68-0.23
	c-4.76-16.49-14.73-29.16-25.13-41.87c-16.95,9.28-25.03,21.85-17.83,41.41c-11.85,0-21.92,0-32.8,0c0-32.76,0-65.13,0-98.43
	c10.65,0,20.51,0,30.85,0c0,14.2,0,27.79,0,45.74c19.17-14.24,36.36-25.82,47.08-45.59C437.01,654.02,447.53,654.02,461.95,654.02z"
	/>
<path d="M219.36,751.98c-9.44,0-17.22,0-26.38,0c14.5-33.07,28.44-64.88,42.97-98.02c11.47,0,24.29,0,37.06,0
	c14.94,31.9,29.95,63.95,45.71,97.6c-10.92,0-20.6,0-30.48,0c-7.6-18.83-7.6-18.84-29.58-18.91c-10.06-0.03-20.12-0.01-29.75-0.01
	C224.9,740.76,221.82,747,219.36,751.98z M235.56,715.73c13.39,0,23.07,0,35.91,0c-6.16-12.9-11.29-23.63-18.29-38.29
	C246.46,692.04,241.77,702.23,235.56,715.73z"/>
<path class="st0" d="M301.98,384.12c20.32-7.05,38.57-17.25,52.17-34.45c5.41-6.83,11.28-8.48,19.2-1.59
	c-6.33,19.46-15.4,38.02-31.64,50.75c-21.72,17.04-45.16,31.9-68.05,47.43c-10.14,6.88-19.49,1.83-28.66-3.07
	c-35.47-18.96-69.06-40.69-99.72-66.86c-5.11-4.36-9.56-11.83-19.6-6.33c0.63,11.65,6.73,19.39,16.48,25.6
	c13.51,8.6,26.51,18,39.77,27c8.4,5.7,12.77,13.41,13.59,23.67c3.14,39.47,12.03,77.68,24.63,115.2
	c4.05,12.05,7.45,24.91,2.22,42.08c-17.19-23.16-20.24-48.98-31.31-70.99c-11.46-22.79-23.43-45.34-34.42-68.36
	c-10.79-22.61-19.26-46.46-37.03-68.27c-6.11,11.19-2.03,18.45,0.95,25.18c5.18,11.68,5.39,23.6,5.83,36.14
	c0.9,25.42,4.12,50.76,6.54,76.12c1.32,13.77,4.23,27.52,3.99,41.24c-0.14,7.96-5.12,15.83-9.27,27.53
	c-3.74-7.74-6.12-11.3-7.22-15.22c-3.17-11.23-5.54-22.68-8.72-33.9c-11.74-41.46-21.53-83.08-20.17-126.78
	c0.41-13.16-0.92-27.38-13.63-43.17c-1.4,11.81-2.85,19.13-3.03,26.48c-0.55,22.6-0.62,45.21-0.86,67.82
	c-0.17,16.3-0.45,17.37-10.35,33.86c-2.55-16.52-4.9-29.81-6.6-43.18c-3.8-29.91-1.58-59.23,4.35-89.03
	c6.94-34.89,10.55-70.55,13.51-106.06c1.18-14.18-1.86-29.17-5.35-43.2c-7.56-30.41-17.01-60.34-24.99-90.66
	c-4.41-16.75-7.4-33.88-11.5-53.02C77.16,66.67,120,55.74,166.09,66.86c14.51,3.5,16.42,8.57,14.78,30.63
	c-10.58-2.65-20.74-5.91-31.15-7.59c-10.2-1.65-21.24-7-33.04,5.16c9.83,4.05,17.98,8.16,26.57,10.82
	c34.5,10.65,67.18,24.8,93.42,50.38c11.94,11.64,23.27,24.19,33.19,37.58c32.79,44.26,72.54,81.67,113.41,118.08
	c2.16,1.93,5.62,3.13,6.63,5.47c1.6,3.7,3.33,8.91,1.86,11.93c-1.35,2.76-7.13,5.2-10.53,4.73c-7.11-0.98-14.49-2.95-20.78-6.33
	c-16.67-8.95-33.55-17.81-49.01-28.63c-29.63-20.74-61.75-35.95-96.18-46.18c-12.18-3.62-25.3-4.07-42.46-6.63
	c9.35,14.01,20.56,12.69,29.13,16.38c9.2,3.96,18.72,7.17,29.44,11.22c-2.52,4.77-4.11,7.77-5.69,10.77c0,0,0.5-0.62,0.5-0.62
	c-7.72,3.51-17.82,5.26-17.49,16.47c0.78,26.48-2.36,54.59,25.67,71.43c2.43,1.46,4.3,3.85,6.4,5.84
	c20.93,19.8,24.63,20.33,51.11,7.16C295.24,384.64,298.61,384.38,301.98,384.12z"/>
<path class="st0" d="M573.66,285.2c-1.12-2.55-2.24-5.1-3.98-9.05c19.46-7.17,38.12-14.04,56.79-20.91
	c-13.26-7.83-25.65-4.92-37.75-1.19c-35.03,10.8-67.79,26.04-98.39,46.7c-19.17,12.94-40.53,22.71-61.23,33.27
	c-4.75,2.42-10.82,2.25-16.74,3.35c-4.64-10.13-2.67-16.55,4.49-22.52c48.41-40.32,90.5-86.64,129.22-136.22
	c26.48-33.91,61.86-54.82,102.58-67.47c11.54-3.59,22.76-8.19,35.28-12.75c-12.11-9.91-12.11-9.91-62.42,0.44
	c-4.11-21.35-0.58-28.04,20.38-31.62c43.13-7.37,83.82,1.69,123.79,19.83c1.13,20.98-4.7,39.67-9.91,58.5
	c-8.93,32.31-19.1,64.38-25.8,97.15c-3.55,17.37-2.7,36.21-0.68,54.03c4.58,40.47,11.69,80.64,16.64,121.07
	c3.84,31.33-3.39,61.87-8.8,92.62c-14.53-17.96-7.93-38.78-9.51-58.24c-1.64-20.21-1.72-40.54-2.66-65.62
	c-5.44,6.35-9.42,8.86-9.91,11.93c-2.72,17.23-6.15,34.57-6.38,51.92c-0.33,25.05-3.4,49.23-10.92,73.18
	c-6.1,19.45-10.09,39.56-15.26,59.32c-1.44,5.48-3.78,10.71-6.38,17.93c-11.91-10.29-12.82-22.24-11.45-34.28
	c2.65-23.17,6.24-46.23,9.26-69.36c0.94-7.22,1.92-14.53,1.84-21.79c-0.23-21.07-2.49-42.23,8.67-61.85
	c1.83-3.22,0.26-8.37,0.26-18.52c-7.07,9.2-12.38,13.96-15.05,19.9c-24.16,53.85-55.3,104.43-74.81,160.45
	c-3.27,9.4-8.13,18.26-13.18,29.41c-7.99-9-5.66-17.14-4.54-24.27c1.47-9.3,4.47-18.41,7.34-27.44
	c9.99-31.34,18.92-62.91,19.87-96.08c0.45-15.76,6.33-27.9,20.21-36.3c11.83-7.16,22.86-15.64,34.59-22.98
	c9.76-6.11,16.08-13.78,16.58-25.3c-8.77-6.15-13.18,0.34-17.8,4.32c-29.42,25.33-61.69,46.31-95.43,65.45
	c-16.44,9.33-30.18,11.79-46.09-0.52c-16.68-12.91-35.18-23.46-51.97-36.23c-18.48-14.06-29.13-33.72-36.13-55.43
	c8.04-6.83,13.9-4.98,19.16,1.93c18.41,24.22,45.86,32.51,73.05,41.01c13.33,4.17,26.01,3.25,35.81-8.67
	c2.3-2.8,4.76-5.81,7.79-7.64c27.35-16.43,29.02-43.13,29.16-70.79c0.05-9.83-4.83-14.66-13.26-17.4
	C577.88,287.38,575.77,286.29,573.66,285.2z"/>
<path class="st0" d="M217.28,450.97c33.49,18.53,60.73,2.62,87.64-13.9c11.78-7.23,23.13-15.21,34.36-23.28
	c21.92-15.74,38.5-35.57,45.26-62.33c1.99-7.87,5.94-14.21,14.46-13.5c8.11,0.68,14.81,4.49,17.16,14.07
	c8.59,35.1,33.52,57.38,62.38,75.57c17.75,11.19,36.64,20.74,55.61,29.78c13.68,6.52,28.14,6.82,41.98-1.22
	c2.88-1.68,6.41-2.25,11.36-3.91c0.82,13.17-2.92,22.93-9.98,31.59c-57.1,69.97-130.28,103.45-219.97,87.45
	c-65.05-11.6-109.41-54.79-140.15-112.15C216.54,457.56,217.28,455.13,217.28,450.97z"/>
<path class="st0" d="M540.84,156.47c-39.47,58.07-88.91,105.03-137.96,156.16c-47.92-44.46-90.81-90.25-129.52-139.8
	C337.53,102.62,468.94,102.36,540.84,156.47z"/>
<path class="st0" d="M301.98,384.12c-3.37,0.26-6.74,0.52-10.12,0.78c-15.8,2.63-28.32-2.61-38.01-15.35
	c-2.6-3.42-5.78-6.61-9.23-9.16c-27.53-20.36-20.15-49.04-18.45-76.38c0,0-0.5,0.62-0.5,0.62c11.96-7.33,23.25-5.37,34.53,1.96
	c15.82,10.28,31.77,20.39,47.89,30.19c12.96,7.87,26.27,15.16,42.29,24.35C333.79,355.86,317.88,369.99,301.98,384.12z"/>
<path class="st0" d="M573.66,285.2c2.11,1.09,4.22,2.18,6.34,3.27c-1.51,14.45-3.7,28.87-4.32,43.35c-0.47,11.1-4.29,19.3-13.19,26
	c-6.34,4.77-12.18,10.49-17.22,16.62c-10.91,13.26-24.11,13.95-39.41,9.8c-23.3-6.33-36.75-25.01-53.69-40.79
	c31.2-19.03,61.99-37.71,92.65-56.58C554.26,281.04,563.71,280.04,573.66,285.2z"/>
<path d="M226.17,284.01c-1.69,27.35-9.08,56.03,18.45,76.38c3.46,2.56,6.63,5.74,9.23,9.16c9.68,12.74,22.21,17.98,38.01,15.35
	c-26.48,13.16-30.18,12.64-51.11-7.16c-2.1-1.99-3.97-4.38-6.4-5.84c-28.03-16.83-24.89-44.95-25.67-71.43
	C208.35,289.27,218.45,287.52,226.17,284.01z"/>
</svg>
