<?xml version="1.0" encoding="utf-8"?>
<!-- Generator: Adobe Illustrator 25.2.1, SVG Export Plug-In . SVG Version: 6.00 Build 0)  -->
<svg version="1.1" xmlns="http://www.w3.org/2000/svg" xmlns:xlink="http://www.w3.org/1999/xlink" x="0px" y="0px"
	 viewBox="0 0 1000 1000" style="enable-background:new 0 0 1000 1000;" xml:space="preserve">
<style type="text/css">
	.st0{fill:#FFFFFF;}
	.st1{stroke:#544C4B;stroke-width:4;stroke-miterlimit:10;}
	.st2{fill:#FFFFFF;stroke:#544C4B;stroke-width:4;stroke-miterlimit:10;}
	.st3{fill:none;stroke:#544C4B;stroke-width:20;stroke-miterlimit:10;}
	.st4{fill:#FDD51B;}
	.st5{fill:#9B4D06;}
	.st6{fill:#4A1E1C;stroke:#000000;stroke-width:4;stroke-miterlimit:10;}
	.st7{fill:#230F0F;stroke:#000000;stroke-width:2;stroke-miterlimit:10;}
	.st8{stroke:#000000;stroke-width:3;stroke-miterlimit:10;}
	.st9{stroke:#000000;stroke-width:4;stroke-miterlimit:10;}
	.st10{fill:#7D5119;stroke:#000000;stroke-width:4;stroke-miterlimit:10;}
	.st11{fill:#815451;stroke:#000000;stroke-width:4;stroke-miterlimit:10;}
	.st12{fill:#FFFFFF;stroke:#000000;stroke-width:2;stroke-miterlimit:10;}
	.st13{fill:#230F0F;stroke:#000000;stroke-width:4;stroke-miterlimit:10;}
	.st14{fill:#150E11;stroke:#000000;stroke-width:4;stroke-miterlimit:10;}
	.st15{fill:#7D5119;stroke:#000000;stroke-width:2;stroke-miterlimit:10;}
</style>
<g id="Calque_1">
</g>
<g id="gnux_3">
	<g>
		<path d="M512.7,928.1c-46.6,0-83-8.4-84.5-8.8c-4.2-1-7.3-4.5-7.7-8.8l-2-20.7c-0.4-4.5,2.2-8.7,6.4-10.3c1.2-0.4,2.4-0.7,3.6-0.7
			c2.9,0,5.7,1.2,7.6,3.5c1.3,0.7,8.2,3.6,34.9,3.6c44.7,0,110.6-8,118-8.9c0.9-0.2,2-0.4,3.4-0.4c5.4,0,17.8,2.8,17.8,28.7
			c0,4.3-2.7,8.1-6.8,9.5C577.2,923.6,546.7,928.1,512.7,928.1z"/>
		<path d="M592.3,886.6c2.6,0,7.8,2,7.8,18.7c-28.8,9.8-59.8,12.8-87.4,12.8c-46,0-82.3-8.5-82.3-8.5l-2-20.7
			c3.8,5.3,20.8,7.1,42.5,7.1c48.4,0,119.9-9.1,119.9-9.1S591.4,886.6,592.3,886.6 M592.3,866.6c-1.9,0-3.6,0.2-5.1,0.5
			c-9.3,1.1-73,8.8-116.3,8.8c-19.1,0-26.8-1.5-29.4-2.2c-3.6-3.2-8.3-4.9-13.1-4.9c-2.4,0-4.8,0.4-7.1,1.3
			c-8.4,3.2-13.7,11.6-12.8,20.6l2,20.7c0.8,8.5,7,15.6,15.3,17.5c1.6,0.4,39.1,9.1,86.8,9.1c35,0,66.6-4.7,93.8-13.9
			c8.1-2.7,13.6-10.4,13.6-18.9c0-11.4-1.9-19.7-6-26.2C609.1,871.1,601.2,866.6,592.3,866.6L592.3,866.6z"/>
	</g>
	<g>
		<path d="M781.4,614.6c-5,0-9.2-3.7-9.9-8.6c-0.9-6.6-1.6-12-2.1-16.4c-1.1-9-1.7-14-2.9-16.7c-1.1-2.3-3.4-4.7-9.1-10.3l-1-1
			c-11.5-11.4-69.9-68.7-70.5-69.3c-0.3-0.3-0.6-0.7-0.9-1.1c-2.3-3-21.9-22.3-46.8-44.9c-10.6-9.6-10.8-18.4-9.2-24.1
			c4.8-16.8,31.8-23.1,40-24.6c0.6-0.1,1.2-0.2,1.8-0.2c2.7,0,5.3,1.1,7.2,3.1c3,3.1,74.2,78,104.3,150.7c0,0.1,0.1,0.1,0.1,0.2
			c0.5,1.3,12,31.3,9,54.4C790.7,610.9,786.5,614.6,781.4,614.6C781.5,614.6,781.5,614.6,781.4,614.6z"/>
		<path d="M670.8,407.4c0,0,72.5,75.8,102.3,147.7c0,0,11.1,28.7,8.4,49.5c-5.3-38.3-1.8-34.2-18-50.1
			c-11.7-11.5-70.5-69.3-70.5-69.3c-2.7-3.6-23.6-24.1-48-46.2C620.5,416.8,670.8,407.4,670.8,407.4 M670.8,387.4
			c-1.2,0-2.4,0.1-3.7,0.3c-0.9,0.2-9.2,1.8-18.2,5.1c-16.4,6.1-26.3,15.1-29.6,26.6c-2,6.9-3,20.5,12.1,34.2
			c24.3,22.1,42.8,40.4,45.7,43.8c0.5,0.7,1.1,1.3,1.7,1.9c0.6,0.6,59,57.9,70.5,69.3l1,1c3,3,6.4,6.3,7,7.4
			c0.6,1.5,1.4,7.7,2.1,13.7c0.5,4.4,1.2,9.8,2.1,16.6c1.4,9.9,9.8,17.3,19.8,17.3c0,0,0.1,0,0.1,0c10,0,18.5-7.5,19.8-17.4
			c3.3-25.2-8.3-55.9-9.6-59.3c-0.1-0.1-0.1-0.3-0.2-0.4C760.7,473,688.3,396.8,685.2,393.6C681.4,389.6,676.2,387.4,670.8,387.4
			L670.8,387.4z"/>
	</g>
	<g>
		<path d="M327.1,453.8c-2.7,0-5.4-1.1-7.4-3.3c-2.9-3.2-3.5-7.9-1.3-11.7l12.5-22c1.3-2.3,3.5-4,6.1-4.7l32.3-8.6
			c0.8-0.2,1.7-0.3,2.6-0.3c2.1,0,4.1,0.6,5.8,1.9c2.4,1.7,4,4.4,4.2,7.4l0.4,5.3c0.1,0.8,0,1.6-0.1,2.5l-0.9,5.1
			c-0.6,3.3-2.7,6-5.7,7.4l-44.4,20.2C330,453.5,328.5,453.8,327.1,453.8z"/>
		<path d="M372,413.2l0.4,5.3l-0.9,5.1l-44.4,20.2l12.5-22L372,413.2 M372,393.2c-1.7,0-3.4,0.2-5.1,0.7l-32.3,8.6
			c-5.2,1.4-9.6,4.8-12.2,9.4l-12.5,22c-4.3,7.5-3.2,17,2.6,23.4c3.9,4.2,9.3,6.5,14.8,6.5c2.8,0,5.6-0.6,8.3-1.8l44.4-20.2
			c6-2.7,10.3-8.3,11.4-14.8l0.9-5.1c0.3-1.6,0.4-3.3,0.2-4.9l-0.4-5.3c-0.4-5.9-3.5-11.4-8.4-14.8
			C380.2,394.5,376.1,393.2,372,393.2L372,393.2z"/>
	</g>
	<g>
		<path class="st0" d="M674.2,964.5c-20.4,0-37.5-6.3-48.2-11.6c-13-6.4-21-20.4-23.9-41.7c-25.2,7.9-54.2,11.9-86.3,11.9
			c-41.3,0-74.6-6.6-82.7-8.4c-0.8,1.6-1.7,3.1-2.7,4.5c-19.7,29.5-46.8,43.4-65.1,44.1c-0.3,0-0.6,0-0.9,0c-0.8,0-1.6,0-2.4-0.1
			c-0.5,0-1,0.1-1.5,0.1c-0.3,0-0.6,0-0.9,0c-13,0-47-11.9-86.6-26.3c-8-2.9-14.9-5.4-18.9-6.7c-3.2-1.1-11.3-2.2-20-3.4
			c-25.5-3.5-64.1-8.9-88.5-25.5c-11.3-7.7-18.7-17.3-21.9-28.3c-2-7.1,0.6-15,4-24.9c2.5-7.3,5.3-15.5,6.6-24.4
			c1.2-8.1-0.7-21.4-2.3-33.1c-1.3-9.5-2.6-18.4-2.4-25.2c0.1-4.4,0.8-10.8,5.4-15.1c14.4-13.1,30.4-15.2,43.3-16.8
			c9.9-1.3,16.2-2.3,20-6.1c1.6-22.3,10.8-50.9,28.4-67.7c-0.2-2.9-0.2-5.8-0.1-8.6c0.3-6.7,4.8-14.2,11.7-25.1
			c-4.8-24.4-6.7-50.1-5.5-73c1.1-19.8,5.2-46.8,18.7-63.4c20.1-24.7,49-51.3,74.4-68.3c8.9-18,17.4-32.8,25.1-44.2
			c3.4-5.5,6.1-10.6,8.1-15.1c-0.2-0.5-0.4-0.9-0.7-1.4c-8.2-17-9.4-35.5-9-48.1c0.2-6.3,1.1-14,2.3-19.9c-1.2-0.2-2.8-0.3-4.9-0.3
			c-19.3,0-57.4,11.6-78.9,33.4c-1.9,2-4.5,3-7.1,3c-2,0-4-0.6-5.7-1.8c-4-2.8-5.4-8.1-3.3-12.5c0.3-0.6,0.6-1.3,0.9-2
			c5.5-11.7,18.1-38.7,41.6-61.6c-5,0.4-9.9,0.7-14.7,0.7c-44.5,0-77.5-19.2-93-54.2c-10.6-24-12.2-54.4-4.5-85.8
			c7.7-31.1,24.3-62,46.8-86.9c2-2.2,4.7-3.3,7.4-3.3c2.3,0,4.7,0.8,6.6,2.5c4.1,3.6,4.6,9.8,1,14c-16.4,19.3-22,39-16.1,56.9
			c6.5,19.9,26.7,36.1,52.6,42.3c6,1.4,11.5,2.1,16.9,2.1c18,0,31.4-8,47-17.2c14.9-8.9,31.8-18.8,54.8-22.6
			c7.9-11.7,30.1-19.7,66.2-23.7c0.8-5.1,2.8-8.4,4.6-10.6c2.8-3.2,6.5-5,10.3-5c2.1,0,4,0.6,5.7,1.8c1.9-9.4,4.9-21.1,15-26.6
			c1.5-0.8,3.1-1.2,4.8-1.2c2.1,0,4.1,0.6,5.9,1.9c3.1,2.3,4.7,6.1,3.9,9.9c-1.8,9.8,0.1,20.2,2.2,25.4c1.6-1.2,3.3-2.7,4.1-3.9
			c-0.5-3.6,1-7.3,4.2-9.5c1.7-1.2,3.8-1.8,5.8-1.8c2.5,0,5.1,1,7,2.9c5.5,5.4,8.2,10.9,9.5,15.7c21.7,1.9,40.3,5.4,54.3,10.3
			c17.8,6.2,28.4,14.8,31.7,25.5c8.5,3.9,16,8.4,23.3,12.7c15.6,9.2,29,17.2,47,17.2c5.4,0,10.9-0.7,16.9-2.1
			c25.9-6.2,46.1-22.4,52.6-42.3c5.9-18,0.3-37.6-16.1-56.9c-3.5-4.2-3.1-10.4,1-14c1.9-1.7,4.2-2.5,6.6-2.5c2.7,0,5.5,1.1,7.4,3.3
			c22.5,24.9,39.2,55.8,46.8,86.9c7.8,31.4,6.2,61.9-4.5,85.8c-15.5,34.9-48.5,54.2-93,54.2c-7,0-14.3-0.5-21.9-1.4
			c0.9,1.3,1.8,2.6,2.7,4c7.6,11.4,18.1,27.1,36.8,48.1c3.3,3.7,3.4,9.3,0.2,13.1c-2,2.3-4.8,3.5-7.6,3.5c-1.8,0-3.7-0.5-5.3-1.6
			c-6.4-4-21.3-4.6-35.7-5.2c-9-0.4-18.6-0.7-28.1-1.9c10.3,20.6,11.8,37,11.3,47.1c15.8,33.6,38.8,70.8,68.3,110.7
			c40.1,54.2,62.2,107.4,65.8,158.2c2.3,32.1-3.7,54.8-7.9,66.1c9.4,8,9.7,22,9.9,33.6c0.2,10,0.4,20.4,5.4,24.7
			c0.6,0.5,1.1,1.1,1.6,1.7c14.2,19.5,28.6,27.7,40.2,34.3c8.8,5,16.5,9.4,20.2,17.4c5,10.7,0.2,22.3-5.2,32.3
			c-12.1,22.6-32.3,30.9-53.7,39.8c-9.9,4.1-20.1,8.3-30.1,14.2c-12.9,7.6-23.1,16.5-32,28.1C728.8,956.7,696.4,964.5,674.2,964.5
			C674.2,964.5,674.2,964.5,674.2,964.5z"/>
		<path class="st0" d="M236.7,31.4c-45.3,53.2-9.7,103.2,41.8,115.4c6.9,1.7,13.3,2.4,19.2,2.4c40.6,0,59.9-34.6,107.3-40.5
			c0.4,0,0.9-0.1,1.3-0.2c2-12.2,32-20.5,69.3-23.7c-1.5-11.5,3.1-14.6,5-14.6c3.4,8.6,5.1,12.5,7.1,12.5c1.2,0,2.5-1.5,4.3-4.4
			c4.7-7.5,3.3-28.3,14-34.1c-3.3,17.9,3.2,38.7,9.6,38.7c6.4,0,19.1-11,16.4-16.8c6.1,6,8,12.7,7.6,17.9
			c45.7,2.9,85.6,13.5,86,33.4c29,12.1,47.7,33,79.2,33c5.9,0,12.2-0.7,19.2-2.4c51.5-12.2,87.1-62.2,41.8-115.4
			c73,80.8,69.5,210.2-43.2,210.2c-15.1,0-32.1-2.3-51.1-7.4c0,0,0,0,0,0c18.3,8.7,20.8,29.3,61.3,74.7
			c-17.2-10.9-60.5-2.5-89.2-13.6c0,0.3,0.1,0.7,0.2,1.1c19.9,28.1,22.2,50.8,21.1,62.8c13.5,29,35.2,67.1,70.5,114.8
			C827.4,600,795.3,684.6,788.9,697c-0.2,0.3-0.4,0.8-0.8,1.3c1.2,0.2,2.5,0.6,3.8,1.2c17.3,8.3,1.2,45.5,18.1,60
			c36.3,49.7,75.9,33.4,54.4,73.4c-15.6,29.1-48.1,31.3-80,50.1c-12,7.1-23.9,16.5-34.8,30.6c-23.8,30.8-50.9,40.9-75.3,40.9
			c-16.4,0-31.7-4.6-43.8-10.6c-16.1-7.9-20.1-32-19.4-57.6c-2.8,1.3-5.7,2.4-8.8,3.6c0.6,2.6,1,6,1,10.4
			c-28.8,9.8-59.8,12.8-87.4,12.8c-46,0-82.3-8.5-82.3-8.5l-1.2-12.5c-1.8-0.8-3.6-1.7-5.3-2.6c1.3,8.8,0,16.8-4.9,24.2
			c-18,27.1-42.1,39.1-57.1,39.7c-0.2,0-0.3,0-0.5,0c-0.7,0-1.5-0.1-2.4-0.2c-0.6,0.1-1.3,0.1-1.9,0.1c-0.2,0-0.3,0-0.5,0
			c-16,0-84.5-26.5-102.3-32.5c-14.1-4.7-74.5-6.2-106-27.7c-8.7-5.9-15.2-13.4-17.9-22.8c-2.2-7.9,8-24.6,10.9-45.1
			c2.3-16.2-5-45.1-4.6-59.5c0.1-3.8,0.7-6.6,2.2-7.9c22.4-20.4,49.9-9,63.8-23.5c0.9-0.9,1.7-1.9,2.6-3c0.8-22.4,10.9-53.2,29-67.4
			c-0.5-4.6-0.6-8.6-0.4-12.4c0.2-4.7,5.7-13.1,12.4-23.5c-9.9-47.1-9.7-107.2,10.4-132c20.7-25.5,50.3-52,74.4-67.7
			c8.2-16.7,17-32.8,25.8-45.6c5-8.3,8.4-15,10.7-20.7c-0.8-1.8-1.7-3.7-2.6-5.6c-14-28.9-5.8-64.6-4.6-66.6
			c-0.2-5-6.4-7.3-16.1-7.3c-22.4,0-62.9,12.9-86.1,36.3c6.8-14.4,31.3-71,86.8-89.6c0.3-0.1,0.6-0.2,0.9-0.3c3.2-1,6.4-2.2,9.6-3.3
			c-3.3,1.2-6.4,2.3-9.6,3.3c0,0,0,0-0.1,0c-0.3,0.1-0.6,0.2-0.9,0.3c-26,8.5-48.6,12.4-68,12.4C167.2,241.6,163.7,112.2,236.7,31.4
			 M236.7,11.4c-5.5,0-10.9,2.2-14.8,6.6c-24,26.5-40.9,58-49.1,91.2c-8.3,33.5-6.5,66.3,5.1,92.3c8.3,18.7,21.1,33.5,38.1,43.8
			c15.8,9.6,34.6,15,56,16.1c-15,19.2-23.8,37.9-28,46.9c-0.3,0.7-0.6,1.4-0.9,1.9c-4.2,8.8-1.4,19.4,6.6,25
			c3.5,2.4,7.5,3.6,11.5,3.6c5.2,0,10.4-2,14.2-5.9c17.1-17.3,46.7-27.7,65.2-30c-0.3,2.8-0.5,6-0.6,9.4c-0.5,13,0.7,31.8,8.6,49.8
			c-1.5,3-3.4,6.3-5.5,9.8c-7.6,11.2-15.9,25.6-24.5,42.8c-25.6,17.6-54.4,44.1-74.4,68.8c-12.2,15-19.2,38.3-20.9,69.2
			c-1.2,22.4,0.5,47.5,4.9,71.5c-6.6,10.5-10.8,18.2-11.2,26.6c-0.1,1.7-0.1,3.4-0.1,5.1c-16.1,17.5-25.2,43.8-27.7,65.8
			c-2.9,0.9-7.9,1.5-11.7,2c-13.5,1.7-32,4.1-48.8,19.4c-8.4,7.6-8.6,18.6-8.7,22.2c-0.2,7.6,1.1,17,2.5,26.8
			c1.5,10.5,3.3,23.6,2.3,30.3c-1.1,7.9-3.8,15.7-6.1,22.5c-3.8,11.1-7.1,20.8-4.2,30.9c3.8,13.4,12.5,24.8,25.9,33.8
			c26.3,17.9,66.3,23.5,92.7,27.1c7,1,15.8,2.2,18.2,3c3.9,1.3,10.7,3.8,18.6,6.6c49.2,17.8,76.6,26.9,90.1,26.9c0.4,0,0.9,0,1.3,0
			c0.4,0,0.7,0,1.1-0.1c0.8,0.1,1.6,0.1,2.4,0.1c0.5,0,0.9,0,1.3,0c19-0.8,49.2-13.7,72.2-47.5c14.1,2.7,43.3,7.2,77.8,7.2
			c28.6,0,54.9-3.1,78.4-9.3c0.3,1.2,0.6,2.3,0.9,3.4c4.8,16.7,13.7,28.3,26.4,34.6c11.7,5.8,30.3,12.6,52.6,12.6
			c24.4,0,60-8.4,91.1-48.7c8.2-10.5,17.4-18.7,29.2-25.6c9.4-5.5,19.3-9.6,28.9-13.6c22-9.1,44.8-18.5,58.6-44.3
			c6.1-11.4,12.3-26.5,5.4-41.3c-5-10.9-14.8-16.5-24.3-21.9c-10.7-6.1-24.1-13.7-37-31.5c-0.9-1.2-1.9-2.3-3.1-3.3
			c-1.7-2.3-1.9-12.5-2-17.4c-0.1-7-0.3-14.2-2-21.3c-1.5-6.1-3.8-10.8-6.6-14.5c4.2-13.5,8.5-35.3,6.5-64.5
			c-1.7-23.7-7.4-48.4-16.9-73.2c-11.4-29.8-28.5-60.1-50.8-90.2c-28.5-38.5-50.8-74.5-66.3-106.9c0.1-8.3-1-19.8-5.7-33.6
			c4.1,0.2,8.2,0.4,12.1,0.5c7.9,0.3,15.4,0.6,21.5,1.4c6.9,0.9,9,2.1,9.2,2.2c3.3,2.1,7,3.1,10.7,3.1c5.7,0,11.3-2.4,15.3-7.1
			c6.5-7.6,6.3-18.8-0.3-26.2c-12-13.5-20.6-24.7-27.1-34.1c0.7,0,1.3,0,2,0c24.7,0,46.3-5.5,64-16.3c17-10.4,29.8-25.1,38.1-43.8
			c11.5-26,13.3-58.8,5.1-92.3c-8.2-33.2-25.2-64.7-49.1-91.2c-3.9-4.4-9.4-6.6-14.8-6.6c-4.7,0-9.4,1.6-13.2,5
			c-8.2,7.2-9.1,19.7-2,28c9.8,11.5,20.2,29,14.2,47.3c-5.4,16.4-23.2,30.4-45.4,35.7c-5.2,1.2-10,1.8-14.5,1.8
			c-15.2,0-27-7-41.9-15.8c-6.2-3.7-13-7.7-20.5-11.4c-4.5-9.8-14.8-20.2-36.3-27.7c-15.8-5.5-34.5-8.5-50.5-10.2
			c-2.3-4.9-5.5-9.4-9.6-13.5c-3.9-3.8-8.9-5.7-14-5.7c-2.1,0-4.2,0.3-6.2,1c1.1-7.4-2-14.7-8-19.1c-3.5-2.5-7.6-3.8-11.8-3.8
			c-3.3,0-6.5,0.8-9.5,2.4c-10.2,5.5-14.9,14.8-17.7,23.7c-6,0.5-11.8,3.4-16.1,8.3c-1.7,2-3.5,4.6-4.9,8.1
			c-14,1.9-26.4,4.5-36.2,7.6c-8.3,2.7-15,5.8-20.2,9.4c-3.1,2.1-5.5,4.3-7.5,6.6c-22.8,4.5-39.5,14.4-54.3,23.2
			c-14.9,8.8-26.7,15.8-41.9,15.8c-4.6,0-9.3-0.6-14.5-1.8c-22.2-5.3-40.1-19.3-45.4-35.7c-6-18.3,4.4-35.8,14.2-47.3
			c7.1-8.3,6.2-20.8-2-28C246.1,13.1,241.4,11.4,236.7,11.4L236.7,11.4z M236.7,51.4L236.7,51.4L236.7,51.4L236.7,51.4z"/>
	</g>
	<path class="st1" d="M238.6,728.6c-4.9-17-6-27.7-5.6-36.9c0.4-9.2,21.7-33.3,31.3-58.5c9.6-25.3,21.7-62.1,28.1-77.4
		c6.4-15.2,35.3-91.6,63.6-133c20.4-33.5,13.8-42.1,13.6-54.8c-0.8-74.2-25.9-224,103.6-236.8c76.1-2.4,126.3,19.2,151.6,82.2
		c0,0,17.6,53.3,14.4,117.5c0,0,0,59.7,92.2,184.4c92.2,124.7,60.1,209.3,53.7,221.7c-6.4,12.4-127.3,166.2-177.2,189.1
		s-152.2,26.5-190.1,0S275.3,857.2,238.6,728.6z"/>
	<path class="st2" d="M397.6,331.5h167.6c0,0,0,14.4,25.7,68.2c25.7,53.7,14.4,51.3,27.3,75.4c12.8,24.1,68.2,158,44.1,218.1
		s-54.5,186-194.9,179.6c-140.3-6.4-174.8-194.1-162-250.2c12.8-56.1,32.9-86.6,37.7-99.4c4.8-12.8,20.8-58.5,28.9-77
		c8-18.4,26.5-32.1,26.5-37.7C398.4,402.8,399.2,349.1,397.6,331.5z"/>
	<path class="st3" d="M806.8,762.1c-16.9-14.6-0.8-51.8-18.1-60c-8.3-4-15.8,1.3-23.6,9.7c-15.6,16.7-32.7,45.8-60.4,39.4
		c-37-8.6-34.7-19.2-36-36.6c-0.2-2.2-0.4-4.6-0.7-7c-3.9-26.6-35.2-20-42.9-5.3c-0.3,0.6-0.6,1.1-0.8,1.7
		c-5.4,14.2-1.8,95.3-5.4,111.6c-3.6,16.4-27.2,113.4,8.5,131c30.1,14.8,79.2,21.2,119.1-30.3c10.9-14.1,22.8-23.5,34.8-30.6
		c31.9-18.8,64.4-21,80-50.1C882.7,795.5,843.1,811.8,806.8,762.1z"/>
	<path class="st3" d="M399.9,842.5c-7.7-11.7-16.7-24.3-26-38.1c-33.3-49.6-74.6-137.7-107.1-129.3c-8.8,2.3-16.2,6.8-22.5,12.5
		c-17.1,15.3-26.9,38.9-37,49.5c-13.8,14.4-41.4,3.1-63.8,23.5c-1.4,1.3-2.1,4.1-2.2,7.9c-0.3,14.4,7,43.3,4.6,59.5
		c-2.9,20.5-13.2,37.3-10.9,45.1c2.7,9.5,9.2,16.9,17.9,22.8c31.5,21.5,91.9,23,106,27.7c18,6,87.8,33.1,102.8,32.5
		c15-0.6,39.1-12.6,57.1-39.7C432.1,896.7,420.1,872.9,399.9,842.5z"/>
	<path class="st4" d="M293,912.1c-63.1-16.5-115.6-17.5-144.7-16.2c-8.7-5.9-15.2-13.4-17.9-22.8c-2.2-7.9,8-24.6,10.9-45.1
		c2.3-16.2-5-45.1-4.6-59.5c7.7-9.9,13.8-15.6,30.1-15.1c18.9,0.6,46.6-3,51.1-13.2c3.4-7.8,3.9-32.3,21.7-52.5
		c6.4-5.7,13.7-10.2,22.5-12.5c32.5-8.4,73.7,79.7,107.1,129.3c9.2,13.8,18.2,26.4,26,38.1C401.6,900.8,363.4,930.5,293,912.1z"/>
	<path class="st5" d="M239.5,687.6c-17.7,20.2-18.2,44.7-21.7,52.5c-4.5,10.2-32.2,13.8-51.1,13.2c-16.3-0.5-22.4,5.2-30.1,15.1
		c0.1-3.8,0.7-6.6,2.2-7.9c22.4-20.4,49.9-9,63.8-23.5C212.6,726.5,222.4,702.9,239.5,687.6z"/>
	<path class="st5" d="M414.3,916.3c-18,27.1-42.1,39.1-57.1,39.7c-15,0.6-84.8-26.5-102.8-32.5c-14.1-4.7-74.5-6.2-106-27.7
		c29.1-1.3,81.6-0.3,144.7,16.2c70.5,18.5,108.7-11.3,102.1-69.6C415.3,872.9,427.3,896.7,414.3,916.3z"/>
	<path class="st5" d="M780.9,884.7c-11.9,7-23.8,16.4-34.7,30.3c-39.7,51.1-88.5,44.8-118.5,30.1c-35.5-17.4-12-113.7-8.4-129.9
		c3.6-16.2,0-96.6,5.4-110.7c0.2-0.6,0.5-1.1,0.8-1.7c3.7,25.2,16.2,72.3,15.9,93.1c-0.4,23.8-22.9,89.2,4.4,103.2
		c27.3,14,72.5,6.7,105.5-4.8C761.1,891,771.4,887.7,780.9,884.7z"/>
	<path class="st4" d="M806.4,762.3c-16.8-14.4-0.8-51.3-18-59.5c-8.3-3.9-15.7,1.3-23.5,9.6c-15.5,16.6-32.5,45.5-60.1,39.1
		c-36.8-8.5-34.5-19-35.8-36.3c-0.2-2.2-0.4-4.5-0.7-7c-3.9-26.4-35.1-19.8-42.7-5.3c3.7,25.2,16.2,72.3,15.9,93.1
		c-0.4,23.8-22.9,89.2,4.4,103.2c27.3,14,72.5,6.7,105.5-4.8c9.8-3.5,20.1-6.7,29.7-9.7c31.8-18.6,64.1-20.8,79.6-49.7
		C881.9,795.4,842.5,811.6,806.4,762.3z"/>
	<path class="st1" d="M397.1,461.4c-16,25.6-34.3,51.7-49.9,81.8c-15.6,30.1-27.1,78.2-33.7,105.3c-6.6,27.1-4.8,57.7-36.7,45.1
		c-31.9-12.6-54.2-153.3-20.4-194.9c33.8-41.6,91.4-86,110.1-81.8C385.1,421.1,408.5,443.2,397.1,461.4z"/>
	<path class="st6" d="M729.6,312.7c-17.3-11-61.4-2.3-90-13.9c0,0,0,0,0,0s-8-2-21.3-6c5.7,5.9,3.6,17,7.6,24.3
		c4,7.3,6.7,25.6,8.2,33c1.6,7.3,4,16.4-8.2,27c-12.2,10.6-23.4,92.1-24,106c-0.7,13.9-43.8,37.2-59.2,39.7
		c-15.3,2.5-21.8-7.5-24.7-15.2c-1.3,10.2-20.2,13.5-51.1,12.9c-30.9-0.6-55.4-65-59.6-72.8c-4.2-7.9-4-34-5.1-43
		c-1.1-9.1,6.2-15.4,6.2-25.3c0-9.8-24.7-24.5-38-49c-13.3-24.5-10.2-38.1-10.2-38.1c-0.5-16.5-69.1-4.5-102.1,29
		c6.9-14.5,31.5-71.5,87.7-89.9c16-5.2,33.7-13.1,33.7-13.1s137-33,89.2-89.6c0,0-16.9-24.7-65.4-17.7
		c5.5-33.2,218.3-37.2,219.3,8.9c0,0-85.7,12.8-56.3,57.9c28.7,44.1,54.4,29.5,102.1,60C686.6,246.7,689.1,267.3,729.6,312.7z"/>
	<path class="st7" d="M459,441.7c-20-19.4-1-29.2,31-8.7c32,20.5-9.3,4.6-29.7,8.7H459z"/>
	<path class="st7" d="M570,441.7c20-19.4,1-29.2-31-8.7c-32,20.5,9.3,4.6,29.7,8.7H570z"/>
	<path class="st8" d="M549.6,439.8c-0.2,0.4-7.2,1.5-7.1,0.2c0.1-1.3,19.6-12,19.9-8.3c0.1,2-1.1,3.1-3,4c1.9-2,1.8-3.7,0.5-3.3
		c-2.6,0.8-14.7,6-13.9,7.1C546.8,440.2,547.8,440,549.6,439.8z"/>
	<path class="st8" d="M482.8,440.6c0.2,0.4,7.2,1.5,7.1,0.2c-0.1-1.3-19.6-12-19.9-8.3c-0.1,2,1.1,3.1,3,4c-1.9-2-1.8-3.7-0.5-3.3
		c2.6,0.8,14.7,6,13.9,7.1C485.7,441,484.7,440.7,482.8,440.6z"/>
	<path class="st9" d="M473.2,486.2c-8.9,1-12-16.8,0-16.8c12,0,15.1,3.3,37.4,2.3c22.2-1,27-6.2,42-5.4c15,0.8,5.8,19.9-5.1,18.7
		c5.1-3.7,11.1-8.2,9.5-14.1c-1.6-5.9-23.8,3.3-43.3,3.5c-19.4,0.2-41.1-5.5-44.6-0.6C465.5,478.7,467.4,483.1,473.2,486.2z"/>
	<path class="st10" d="M658.8,371.7c-0.7-4-11.3-16.8-11.3-4.6c0,12.1-11.3,39.9-12.7,21.4c-1.3-18.5-23.3,19.1-17.5,71.1
		c5.9,52-31.2,81.5-23.9,68.2c7.3-13.3-26.7,4.6-26.7,4.6c-11.3,13.3-30,27.2-37.4,37.6c-7.3,10.4,0,29.5,16,23.7
		c-11.3,27.2-30,22.6-38.7,5.2c-8.7-17.3-4-29.5-22-35.3c-18-5.8-49.4-35.9-58.7-45.7c-9.3-9.8,6.7,27.2-5.3,8.1
		c-12-19.1-27.4-87.9-37.4-89.6c-10-1.7-18.7,20.8-12-4c6.7-24.9,7.3-44.5-6.7-73.4c-14-28.9-5.8-64.6-4.6-66.6
		c0,0-3.2,13.6,10.2,38.1c13.3,24.5,38,39.1,38,49c0,9.8-7.3,16.2-6.2,25.3c1.1,9.1,0.9,35.2,5.1,43c4.2,7.9,28.7,72.2,59.6,72.8
		c30.9,0.6,49.8-2.7,51.1-12.9c2.9,7.7,9.3,17.7,24.7,15.2c15.3-2.5,58.5-25.8,59.2-39.7c0.7-13.9,11.8-95.4,24-106
		c12.2-10.6,9.8-19.7,8.2-27c-1.5-7.3-4.2-25.6-8.2-33c-4-7.3-1.9-18.4-7.6-24.3c13.3,4,21.3,6,21.3,6s0,0,0,0
		C672.2,344,659.5,375.8,658.8,371.7z"/>
	<path class="st11" d="M475.2,310c-4.7,2.7-29.4,17.6-41.9-9.2c-12.4-26.9-2.1-51.3,13.3-52.1c15.3-0.8,32.7,26.9,32.7,40.1
		C479.4,302,478.6,308.1,475.2,310z"/>
	<path class="st11" d="M549,312c4.6,8.2,34,3.2,37.7-8c3.7-11.2,6.6-43.7-8.3-53.7C563.5,240.2,529.9,277.9,549,312z"/>
	<path class="st12" d="M546.9,298.8c0,0,20.3,5.6,33.6-9.2C579.7,273.1,547.8,267.1,546.9,298.8z"/>
	<path class="st12" d="M474.8,298c0,0-28.6,12-34-11.6C447,269.1,464,265.9,474.8,298z"/>
	<path class="st13" d="M402.8,206.4c62.5,12.8,86.2,88.5,58.9,118.7c-27.3,30.2-2.8,70.6,8.4,80.4c15.4,13.5,69.8,16.7,92.6-1.3
		c21.8-17.1,16.7-62.9,1.5-84.9c-15.2-22-33.8-98.7,30.7-108.9C500,89.7,468.4,188.2,402.8,206.4z"/>
	<path class="st14" d="M379.3,218.5c-209,91.8-236.6-84-145.8-184.5c-45.3,53.2-9.7,103.2,41.8,115.4c54.7,13,72.2-31.3,126.5-38.2
		c0.4,0,0.9-0.1,1.3-0.2c48.5-6.9,65.4,17.7,65.4,17.7C516.3,185.5,379.3,218.5,379.3,218.5z"/>
	<path class="st14" d="M616.8,219.7c209,91.8,236.6-84,145.8-184.5c45.3,53.2,9.7,103.2-41.8,115.4c-54.7,13-72.2-31.3-126.5-38.2
		c-0.4,0-0.9-0.1-1.3-0.2c-48.5-6.9-65.4,17.7-65.4,17.7C479.8,186.7,616.8,219.7,616.8,219.7z"/>
	<path class="st15" d="M435.4,115c4,11,7.3,17.9,13.3,9.8c6-8.1,2-23,11.3-27.2c2.7,8.1,17.3,11.6,13.3-4.6
		c-4-16.2,1.8-20.2,3.9-20.2c5.4,13.9,6.8,15.6,11.4,8.1c4.7-7.5,3.3-28.3,14-34.1c-3.3,17.9,3.2,38.7,9.6,38.7
		c6.4,0,19.1-11,16.4-16.8c10,9.8,8.7,21.4,4.7,25.7c-2,9,16,12.4,14.7,0c4.7,11.9-12,31.4,10.7,19.3c5.4,13.9,2,21.4-6.7,28.4
		c-8.7,6.9-14,24.9,0,17.9c0,10.4-3.3,15.6-17.3,23.7c-14,8.1-32,20.8-28.7,31.8c-18.7-17.3-48-23.1-54.7-35.9
		c15.3,5.8,11.3-11,2-15c12.7,0.6,10.7-8.1,1.3-14.5C445.5,143.9,427.4,125.4,435.4,115z"/>
	<path class="st1" d="M591.7,448.3c13.8-25.5,42.7-32.5,123.3,62.6c-40.9-41.8-65.5-92.3-46.7-92.3c18.8,0,156.5,146.2,88.8,209.6
		S559.8,507.3,591.7,448.3z"/>
	<path class="st5" d="M211.4,711.4c1.7,5.3-19.4,37.9-6.1,52.6c16.9,18.7,93.1,18.9,114.8-8.3c5.7-7.2,18.2-17.9-12.8-41.6
		c-1.2,17.3,1,27.8-35.8,36.3C243.9,756.8,226.9,728,211.4,711.4z"/>
	<path class="st1" d="M210.4,757.5c-15-15.9,2.4-98,44.5-98.6c42.1-0.6,86.7,58.8,70.7,71.6c-16.1,12.7-3.9,22.9-20.2,27.1
		s-13.1-15.6-27.2-11c-14.1,4.6-6.4,22.4-18.5,21.8s-19.2-17.6-29.5-16.3C220,753.3,225.1,773.1,210.4,757.5z"/>
	<path d="M337.8,423.1l-17.8,25c0,0,41.4-15.1,42.2-15.2c0.8-0.1,10.3-10.5,10.3-10.5l1-13.5l-24.5,3.8L337.8,423.1z"/>
	<path d="M688.9,480.4c-11.1-11.6-28.5-29.7-28.5-29.7l-5.6-48.3c0,0,19.6,5.6,20.4,6.6c0.8,1,33.7,40.1,33.7,40.1
		c24.1,33,49.9,76.6,62.8,100.4s-10.8,107.4-24.5,52.8C733.6,547.9,700,491.9,688.9,480.4z"/>
</g>
</svg>
